<svg height="405" viewBox="0 0 680 405" width="680" xmlns="http://www.w3.org/2000/svg"><g fill="#fff" fill-rule="evenodd"><path d="m0 157h45v9h-45z"/><g fill-rule="nonzero"><g transform="translate(1 -16)"><path d="m19 16.6c4.15 0 7.6 1.05 10.3 3.25 2.6 2.1 4.2 5 4.75 8.6h-5.3c-.6-2.4-1.75-4.2-3.45-5.35s-3.8-1.7-6.4-1.7c-3.85 0-6.75 1.3-8.7 3.95-1.85 2.4-2.75 5.7-2.75 9.85 0 4.3.9 7.6 2.7 9.95 1.9 2.5 4.85 3.75 8.85 3.75 2.6 0 4.8-.65 6.5-1.95 1.8-1.4 3.05-3.5 3.75-6.3h5.3c-.8 4.15-2.65 7.4-5.6 9.75-2.75 2.2-6.05 3.3-9.9 3.3-5.85 0-10.25-1.9-13.2-5.6-2.6-3.2-3.85-7.5-3.85-12.9 0-5.3 1.3-9.6 4-12.95 3-3.8 7.3-5.65 13-5.65zm21.05.7h5.4v31.05h19.65v4.65h-25.05zm39.8 0h6.2l13.75 35.7h-5.85l-3.35-9.2h-15.35l-3.35 9.2h-5.8zm-2.95 22h12.05l-5.9-16.15h-.2zm54.05-12.85c3.3 0 5.95.75 7.95 2.25 2 1.6 3.3 4 3.8 7.2h-5.25c-.35-1.75-1.05-3.05-2.15-3.85-1.1-.85-2.55-1.25-4.35-1.25-2.2 0-3.9.8-5.15 2.45-1.3 1.6-1.9 3.9-1.9 6.8s.6 5.2 1.85 6.85c1.15 1.6 2.85 2.45 5.15 2.45 3.95 0 6.15-2 6.65-5.9h5.25c-.6 3.45-1.95 6.05-3.95 7.75-2 1.65-4.7 2.5-8 2.5-3.95 0-7-1.3-9.2-3.9-2.15-2.5-3.2-5.7-3.2-9.7 0-3.9 1.05-7.1 3.15-9.6 2.25-2.7 5.35-4.05 9.35-4.05zm28.05 0c3.8 0 6.6.95 8.4 2.85 1.55 1.65 2.35 4.05 2.35 7.2v16.5h-4.9v-3.65c-1 1.3-2.25 2.35-3.75 3.1-1.7.8-3.7 1.25-6 1.25-2.7 0-4.8-.7-6.3-2.05-1.65-1.35-2.45-3.1-2.45-5.25 0-2.9 1.15-5.15 3.45-6.7 2.1-1.5 5.1-2.25 8.9-2.35l5.8-.15v-1.05c0-3.6-1.95-5.4-5.85-5.4-1.65 0-3 .3-4 .9-1.2.7-1.95 1.75-2.25 3.2l-5.25-.45c.55-2.8 1.95-4.9 4.15-6.2 1.9-1.2 4.5-1.75 7.7-1.75zm5.5 14.6-5.45.15c-4.85.1-7.25 1.8-7.25 5 0 1 .4 1.8 1.25 2.45.8.65 1.9 1 3.25 1 2.25 0 4.15-.7 5.75-2.05s2.45-3.05 2.45-5.05zm24.4-14.6c6.4 0 9.65 3.5 9.65 10.6v15.95h-5.3v-15.5c0-4.4-2.05-6.6-6.05-6.6-1.5 0-2.85.5-3.95 1.6-1.2 1.2-1.95 2.85-2.15 4.95v15.55h-5.3v-25.85h5.3v3.2c1-1.3 2.15-2.25 3.45-2.9 1.3-.7 2.75-1 4.35-1zm32.35-9.85h5.3v14.2c.95-1.5 2.15-2.65 3.6-3.35 1.3-.7 2.75-1 4.4-1 3.1 0 5.45.9 7.05 2.75 1.5 1.75 2.25 4.35 2.25 7.75v16.05h-5.3v-15.15c0-2.3-.5-4-1.4-5.2-1-1.25-2.55-1.85-4.55-1.85-1.8 0-3.25.7-4.35 2.15-1.15 1.45-1.7 3.3-1.7 5.55v14.5h-5.3zm39.55 9.85c4.2 0 7.45 1.4 9.65 4.3 2 2.6 3.05 6.2 3.1 10.8h-19.6c.2 2.5.85 4.45 2.05 5.8 1.2 1.3 2.85 2 4.95 2 1.85 0 3.35-.45 4.5-1.3.9-.7 1.65-1.85 2.35-3.35h5.3c-.6 2.4-1.75 4.45-3.55 6.05-2.25 1.95-5.1 2.95-8.55 2.95-3.8 0-6.85-1.2-9.05-3.55-2.4-2.5-3.6-5.85-3.6-10.1 0-3.85 1.1-7.05 3.4-9.65 2.2-2.65 5.25-3.95 9.05-3.95zm.15 4.35c-2 0-3.55.55-4.75 1.75-1.1 1.15-1.85 2.8-2.15 5h13.95c-.5-4.5-2.85-6.75-7.05-6.75zm17.7-14.2h5.3v36.4h-5.3zm24.85 9.85c3.8 0 6.75 1.35 8.95 4.05 2 2.5 3 5.7 3 9.7 0 3.8-1 6.95-2.95 9.45-2.1 2.7-5.05 4.05-8.75 4.05-3.2 0-5.8-1.5-7.9-4.5v13.7h-5.3v-35.75h4.95v3.1c1.8-2.55 4.5-3.8 8-3.8zm-.8 4.3c-2.3 0-4.1.9-5.35 2.75-1.1 1.6-1.65 3.75-1.65 6.4v.45c0 2.75.65 5 2.05 6.7 1.2 1.55 2.8 2.35 4.8 2.35 2.6 0 4.5-.85 5.75-2.55 1.1-1.6 1.7-3.8 1.7-6.65s-.55-5.05-1.55-6.65c-1.25-1.9-3.15-2.8-5.75-2.8zm31.65-3.6h5.75l7.1 18.85 6.8-18.85h5.8l-14.05 35.75h-5.65l4.5-10.5zm40.6-.7c3.9 0 7.05 1.3 9.4 3.9 2.3 2.55 3.5 5.8 3.5 9.75 0 3.9-1.15 7.15-3.45 9.65-2.4 2.6-5.55 3.95-9.45 3.95s-7.05-1.35-9.45-3.95c-2.3-2.5-3.45-5.75-3.45-9.65 0-3.95 1.15-7.2 3.5-9.75 2.35-2.6 5.5-3.9 9.4-3.9zm0 4.35c-2.45 0-4.35.95-5.7 2.9-1.2 1.65-1.75 3.8-1.75 6.4s.55 4.7 1.75 6.35c1.35 1.9 3.25 2.9 5.7 2.9s4.35-1 5.75-2.9c1.2-1.7 1.8-3.8 1.8-6.35 0-2.6-.6-4.75-1.8-6.4-1.4-1.95-3.3-2.9-5.75-2.9zm17.95-3.65h5.3v15.75c0 2.2.45 3.8 1.4 4.8.9 1 2.4 1.55 4.45 1.55 1.4 0 2.65-.6 3.85-1.7 1.2-1.15 2.05-2.7 2.5-4.6v-15.8h5.3v25.85h-5.3v-3.5c-2.2 2.8-4.9 4.2-8.15 4.2-6.25 0-9.35-3.5-9.35-10.45zm53.35-8.35v8.35h5.9v4.4h-5.9v15c0 .7.15 1.2.45 1.55.3.3.75.5 1.4.5h3.4v4.4h-4.25c-2.2 0-3.85-.6-4.85-1.75-1-1.1-1.45-2.65-1.45-4.7v-15h-4.8v-4.4h4.8v-6.15zm22.05 7.65c3.9 0 7.05 1.3 9.4 3.9 2.3 2.55 3.5 5.8 3.5 9.75 0 3.9-1.15 7.15-3.45 9.65-2.4 2.6-5.55 3.95-9.45 3.95s-7.05-1.35-9.45-3.95c-2.3-2.5-3.45-5.75-3.45-9.65 0-3.95 1.15-7.2 3.5-9.75 2.35-2.6 5.5-3.9 9.4-3.9zm0 4.35c-2.45 0-4.35.95-5.7 2.9-1.2 1.65-1.75 3.8-1.75 6.4s.55 4.7 1.75 6.35c1.35 1.9 3.25 2.9 5.7 2.9s4.35-1 5.75-2.9c1.2-1.7 1.8-3.8 1.8-6.35 0-2.6-.6-4.75-1.8-6.4-1.4-1.95-3.3-2.9-5.75-2.9zm46.25-4.35c3.8 0 6.6.95 8.4 2.85 1.55 1.65 2.35 4.05 2.35 7.2v16.5h-4.9v-3.65c-1 1.3-2.25 2.35-3.75 3.1-1.7.8-3.7 1.25-6 1.25-2.7 0-4.8-.7-6.3-2.05-1.65-1.35-2.45-3.1-2.45-5.25 0-2.9 1.15-5.15 3.45-6.7 2.1-1.5 5.1-2.25 8.9-2.35l5.8-.15v-1.05c0-3.6-1.95-5.4-5.85-5.4-1.65 0-3 .3-4 .9-1.2.7-1.95 1.75-2.25 3.2l-5.25-.45c.55-2.8 1.95-4.9 4.15-6.2 1.9-1.2 4.5-1.75 7.7-1.75zm5.5 14.6-5.45.15c-4.85.1-7.25 1.8-7.25 5 0 1 .4 1.8 1.25 2.45.8.65 1.9 1 3.25 1 2.25 0 4.15-.7 5.75-2.05s2.45-3.05 2.45-5.05zm22.8-14.6c3.3 0 5.95.75 7.95 2.25 2 1.6 3.3 4 3.8 7.2h-5.25c-.35-1.75-1.05-3.05-2.15-3.85-1.1-.85-2.55-1.25-4.35-1.25-2.2 0-3.9.8-5.15 2.45-1.3 1.6-1.9 3.9-1.9 6.8s.6 5.2 1.85 6.85c1.15 1.6 2.85 2.45 5.15 2.45 3.95 0 6.15-2 6.65-5.9h5.25c-.6 3.45-1.95 6.05-3.95 7.75-2 1.65-4.7 2.5-8 2.5-3.95 0-7-1.3-9.2-3.9-2.15-2.5-3.2-5.7-3.2-9.7 0-3.9 1.05-7.1 3.15-9.6 2.25-2.7 5.35-4.05 9.35-4.05zm16.4-9.85h5.3v14.2c.95-1.5 2.15-2.65 3.6-3.35 1.3-.7 2.75-1 4.4-1 3.1 0 5.45.9 7.05 2.75 1.5 1.75 2.25 4.35 2.25 7.75v16.05h-5.3v-15.15c0-2.3-.5-4-1.4-5.2-1-1.25-2.55-1.85-4.55-1.85-1.8 0-3.25.7-4.35 2.15-1.15 1.45-1.7 3.3-1.7 5.55v14.5h-5.3zm32.35.2c1.05 0 1.95.3 2.65 1 .7.65 1.05 1.5 1.05 2.55s-.4 1.9-1.1 2.6c-.7.65-1.6 1-2.6 1-1.05 0-1.9-.35-2.6-1-.7-.7-1.05-1.6-1.05-2.6 0-1.05.35-1.9 1.05-2.55.7-.7 1.55-1 2.6-1zm-2.65 10.35h5.3v25.85h-5.3zm23.4-.7c4.2 0 7.45 1.4 9.65 4.3 2 2.6 3.05 6.2 3.1 10.8h-19.6c.2 2.5.85 4.45 2.05 5.8 1.2 1.3 2.85 2 4.95 2 1.85 0 3.35-.45 4.5-1.3.9-.7 1.65-1.85 2.35-3.35h5.3c-.6 2.4-1.75 4.45-3.55 6.05-2.25 1.95-5.1 2.95-8.55 2.95-3.8 0-6.85-1.2-9.05-3.55-2.4-2.5-3.6-5.85-3.6-10.1 0-3.85 1.1-7.05 3.4-9.65 2.2-2.65 5.25-3.95 9.05-3.95zm.15 4.35c-2 0-3.55.55-4.75 1.75-1.1 1.15-1.85 2.8-2.15 5h13.95c-.5-4.5-2.85-6.75-7.05-6.75zm14.35-3.65h5.75l6.5 19.25 6.5-19.25h5.75l-9.6 25.85h-5.3zm38.7-.7c4.2 0 7.45 1.4 9.65 4.3 2 2.6 3.05 6.2 3.1 10.8h-19.6c.2 2.5.85 4.45 2.05 5.8 1.2 1.3 2.85 2 4.95 2 1.85 0 3.35-.45 4.5-1.3.9-.7 1.65-1.85 2.35-3.35h5.3c-.6 2.4-1.75 4.45-3.55 6.05-2.25 1.95-5.1 2.95-8.55 2.95-3.8 0-6.85-1.2-9.05-3.55-2.4-2.5-3.6-5.85-3.6-10.1 0-3.85 1.1-7.05 3.4-9.65 2.2-2.65 5.25-3.95 9.05-3.95zm.15 4.35c-2 0-3.55.55-4.75 1.75-1.1 1.15-1.85 2.8-2.15 5h13.95c-.5-4.5-2.85-6.75-7.05-6.75z"/><path d="m3.5 85.3h24.35v5h-18.5v9.9h17.45v5h-17.45v15.8h-5.85zm39.25 0h6.65l13.65 35.7h-6.25l-3.25-8.95h-14.95l-3.25 8.95h-6.25zm-2.4 21.95h11.45l-5.6-15.65h-.2zm38.8-22.65c4.2 0 7.5.85 9.85 2.6 2.5 1.85 3.95 4.75 4.3 8.65h-5.8c-.5-2.2-1.45-3.8-2.75-4.75-1.3-1-3.3-1.45-5.9-1.45-2.25 0-3.95.3-5.15.95-1.5.75-2.2 2-2.2 3.7 0 1.5.8 2.75 2.5 3.65.75.4 2.8 1.15 6.1 2.2 4.85 1.5 7.95 2.7 9.35 3.5 3.1 1.85 4.65 4.4 4.65 7.7 0 3.2-1.25 5.75-3.75 7.6-2.5 1.8-6.05 2.75-10.6 2.75-4.4 0-7.85-.85-10.3-2.55-3-2.1-4.65-5.4-4.9-9.95h5.8c.4 2.7 1.35 4.65 2.9 5.8 1.4 1 3.55 1.55 6.5 1.55 2.6 0 4.7-.45 6.2-1.3 1.5-.9 2.3-2.05 2.3-3.55 0-1.9-1.15-3.4-3.35-4.5-.7-.35-3-1.15-6.95-2.35-4.4-1.4-7.15-2.4-8.2-3-2.75-1.65-4.1-4.05-4.1-7.2s1.3-5.65 4-7.45c2.5-1.75 5.65-2.6 9.5-2.6zm17.2.7h29.25v5h-11.7v30.7h-5.85v-30.7h-11.7zm33.5 0h25.75v5h-19.9v9.9h18.7v5h-18.7v10.8h20.75v5h-26.6zm32.1 0h15.9c3.65 0 6.55.8 8.65 2.45 2.2 1.8 3.35 4.4 3.35 7.8 0 1.85-.5 3.5-1.5 4.95-1.1 1.6-2.65 2.65-4.55 3.15v.1c3.1.7 4.85 2.75 5.25 6.25l.6 5.75c.2 2.2.95 3.95 2.15 5.25h-6.35c-.85-1.1-1.35-2.65-1.55-4.65l-.45-4.4c-.2-1.95-.8-3.35-1.8-4.2-1.05-.9-2.6-1.3-4.6-1.3h-9.25v14.55h-5.85zm5.85 5v11.15h9.25c2.3 0 4.05-.5 5.25-1.45 1.1-1 1.65-2.4 1.65-4.2 0-1.95-.55-3.35-1.65-4.2-1.1-.9-2.85-1.3-5.25-1.3zm45.65-5h5.85v35.7h-5.85zm10.1 0h29.25v5h-11.7v30.7h-5.85v-30.7h-11.7zm33.5 0h25.75v5h-19.9v9.9h18.7v5h-18.7v10.8h20.75v5h-26.6zm32.1 0h15.9c3.65 0 6.55.8 8.65 2.45 2.2 1.8 3.35 4.4 3.35 7.8 0 1.85-.5 3.5-1.5 4.95-1.1 1.6-2.65 2.65-4.55 3.15v.1c3.1.7 4.85 2.75 5.25 6.25l.6 5.75c.2 2.2.95 3.95 2.15 5.25h-6.35c-.85-1.1-1.35-2.65-1.55-4.65l-.45-4.4c-.2-1.95-.8-3.35-1.8-4.2-1.05-.9-2.6-1.3-4.6-1.3h-9.25v14.55h-5.85zm5.85 5v11.15h9.25c2.3 0 4.05-.5 5.25-1.45 1.1-1 1.65-2.4 1.65-4.2 0-1.95-.55-3.35-1.65-4.2-1.1-.9-2.85-1.3-5.25-1.3zm39.15-5h6.65l13.65 35.7h-6.25l-3.25-8.95h-14.95l-3.25 8.95h-6.25zm-2.4 21.95h11.45l-5.6-15.65h-.2zm23.45-21.95h29.25v5h-11.7v30.7h-5.85v-30.7h-11.7zm33.5 0h5.85v35.7h-5.85zm28.7-.7c5.45 0 9.75 1.75 12.9 5.3 3 3.35 4.5 7.8 4.5 13.3s-1.5 9.9-4.5 13.25c-3.15 3.5-7.45 5.25-12.9 5.25-5.5 0-9.8-1.8-12.9-5.3-3-3.4-4.45-7.8-4.45-13.2 0-5.45 1.45-9.85 4.45-13.25 3.1-3.6 7.4-5.35 12.9-5.35zm0 5.15c-3.7 0-6.55 1.25-8.6 3.75-1.95 2.4-2.9 5.6-2.9 9.7 0 4.05.95 7.25 2.9 9.65 2 2.45 4.9 3.7 8.6 3.7s6.55-1.2 8.55-3.55c1.95-2.35 2.95-5.6 2.95-9.8s-1-7.5-2.95-9.9c-2-2.4-4.85-3.55-8.55-3.55zm22.9-4.45h5.85l17.65 25.75h.2v-25.75h5.9v35.7h-5.7l-17.85-26.1h-.2v26.1h-5.85z"/></g><g transform="translate(0 215)"><path d="m8.58.97096951h2.16l8.58 21.41999999h-2.01l-2.49-6.39h-10.32l-2.49 6.39h-2.01zm-3.48 13.46999999h9.12l-4.5-11.48999999h-.09zm29.85-12.56999999v5.01h4.05v1.56h-4.05v10.49999999c0 .66.12 1.17.36 1.47.24.27.69.42 1.35.42h1.95v1.56h-2.19c-1.2 0-2.07-.33-2.58-.93-.48-.54-.69-1.38-.69-2.52v-10.49999999h-3.3v-1.56h3.3v-4.26zm13.56 4.59c2.28 0 4.11.81 5.49 2.46 1.26 1.52999999 1.89 3.44999999 1.89 5.72999999s-.63 4.17-1.89 5.7c-1.38 1.62-3.21 2.46-5.49 2.46s-4.11-.84-5.49-2.46c-1.26-1.53-1.89-3.42-1.89-5.7s.63-4.2 1.92-5.72999999c1.35-1.65 3.18-2.46 5.46-2.46zm0 1.56c-1.77 0-3.15.66-4.17 2.03999999-.93 1.2-1.38 2.73-1.38 4.59 0 1.83.45 3.36 1.38 4.56 1.02 1.35 2.4 2.04 4.17 2.04s3.18-.69 4.2-2.04c.9-1.23 1.38-2.76 1.38-4.56 0-1.86-.48-3.39-1.38-4.59-1.02-1.37999999-2.43-2.03999999-4.2-2.03999999zm17.34-1.56c2.28 0 4.11.81 5.49 2.46 1.26 1.52999999 1.89 3.44999999 1.89 5.72999999s-.63 4.17-1.89 5.7c-1.38 1.62-3.21 2.46-5.49 2.46s-4.11-.84-5.49-2.46c-1.26-1.53-1.89-3.42-1.89-5.7s.63-4.2 1.92-5.72999999c1.35-1.65 3.18-2.46 5.46-2.46zm0 1.56c-1.77 0-3.15.66-4.17 2.03999999-.93 1.2-1.38 2.73-1.38 4.59 0 1.83.45 3.36 1.38 4.56 1.02 1.35 2.4 2.04 4.17 2.04s3.18-.69 4.2-2.04c.9-1.23 1.38-2.76 1.38-4.56 0-1.86-.48-3.39-1.38-4.59-1.02-1.37999999-2.43-2.03999999-4.2-2.03999999zm11.13-7.47h1.8v21.83999999h-1.8zm12.69 5.91c1.86 0 3.36.45 4.53 1.35s1.89 2.27999999 2.13 4.13999999h-1.8c-.21-1.32-.72-2.27999999-1.56-2.93999999s-1.95-.99-3.3-.99c-1.62 0-2.94.63-3.9 1.89-.96 1.19999999-1.41 2.81999999-1.41 4.82999999 0 1.98.45 3.57 1.35 4.74s2.22 1.77 3.93 1.77c2.88 0 4.53-1.47 4.98-4.41h1.77c-.3 1.95-1.05 3.45-2.22 4.47-1.14.99-2.67 1.5-4.53 1.5-2.28 0-4.08-.78-5.34-2.34-1.2-1.44-1.77-3.36-1.77-5.73 0-2.34.6-4.29 1.83-5.81999999 1.29-1.65 3.06-2.46 5.31-2.46zm9.6-5.91h1.83v9.15c.54-1.05 1.26-1.86 2.16-2.43.87-.54 1.86-.81 2.94-.81 1.77 0 3.15.51 4.14 1.56s1.5 2.54999999 1.5 4.46999999v9.9h-1.8v-9.66c0-1.5-.39-2.67-1.14-3.50999999-.78-.81-1.83-1.2-3.21-1.2-1.29 0-2.37.51-3.27 1.56-.9 1.01999999-1.32 2.30999999-1.32 3.83999999v8.97h-1.83zm22.92 5.91c2.16 0 3.78.57 4.83 1.77.9.99 1.38 2.36999999 1.38 4.16999999v9.99h-1.71v-2.97c-.63.9-1.47 1.68-2.49 2.28-1.26.72-2.61 1.11-4.08 1.11-1.5 0-2.73-.39-3.63-1.14-.99-.78-1.47-1.83-1.47-3.09 0-1.8.72-3.12 2.19-3.96 1.26-.81 3.09-1.23 5.43-1.23l3.96-.06v-.93c0-2.93999999-1.5-4.40999999-4.5-4.40999999-1.26 0-2.28.24-3.09.78-.9.57-1.47 1.37999999-1.71 2.45999999l-1.77-.12c.3-1.55999999 1.08-2.75999999 2.34-3.53999999 1.11-.75 2.55-1.11 4.32-1.11zm4.41 8.27999999-3.87.06c-3.93.03-5.88 1.29-5.88 3.75 0 .84.33 1.5.99 2.01s1.56.78 2.64.78c1.56 0 3-.54 4.26-1.62 1.23-1.02 1.86-2.16 1.86-3.36zm7.38-13.43999999c.42 0 .78.15 1.08.45.3.24.45.6.45 1.05 0 .42-.18.78-.48 1.08-.3.27-.63.42-1.05.42-.45 0-.81-.15-1.08-.42-.3-.3-.45-.66-.45-1.08 0-.45.15-.81.45-1.05.27-.3.63-.45 1.08-.45zm-.9 5.58h1.8v15.50999999h-1.8zm13.32-.42c3.84 0 5.76 2.13 5.76 6.38999999v9.54h-1.8v-9.42c0-3.29999999-1.47-4.94999999-4.41-4.94999999-1.26 0-2.28.45-3.12 1.35-.9.89999999-1.38 2.12999999-1.47 3.65999999v9.36h-1.8v-15.50999999h1.8v2.55c.54-.93 1.23-1.65 2.1-2.19s1.86-.78 2.94-.78zm17.79.42h2.01l4.2 13.19999999 3.9-13.19999999h1.74l3.9 13.19999999 4.23-13.19999999h1.98l-5.31 15.50999999h-1.74l-3.9-13.16999999-3.96 13.16999999h-1.71zm24-6.33h1.83v9.15c.54-1.05 1.26-1.86 2.16-2.43.87-.54 1.86-.81 2.94-.81 1.77 0 3.15.51 4.14 1.56s1.5 2.54999999 1.5 4.46999999v9.9h-1.8v-9.66c0-1.5-.39-2.67-1.14-3.50999999-.78-.81-1.83-1.2-3.21-1.2-1.29 0-2.37.51-3.27 1.56-.9 1.01999999-1.32 2.30999999-1.32 3.83999999v8.97h-1.83zm18.15.75c.42 0 .78.15 1.08.45.3.24.45.6.45 1.05 0 .42-.18.78-.48 1.08-.3.27-.63.42-1.05.42-.45 0-.81-.15-1.08-.42-.3-.3-.45-.66-.45-1.08 0-.45.15-.81.45-1.05.27-.3.63-.45 1.08-.45zm-.9 5.58h1.8v15.50999999h-1.8zm13.02-.42c1.86 0 3.36.45 4.53 1.35s1.89 2.27999999 2.13 4.13999999h-1.8c-.21-1.32-.72-2.27999999-1.56-2.93999999s-1.95-.99-3.3-.99c-1.62 0-2.94.63-3.9 1.89-.96 1.19999999-1.41 2.81999999-1.41 4.82999999 0 1.98.45 3.57 1.35 4.74s2.22 1.77 3.93 1.77c2.88 0 4.53-1.47 4.98-4.41h1.77c-.3 1.95-1.05 3.45-2.22 4.47-1.14.99-2.67 1.5-4.53 1.5-2.28 0-4.08-.78-5.34-2.34-1.2-1.44-1.77-3.36-1.77-5.73 0-2.34.6-4.29 1.83-5.81999999 1.29-1.65 3.06-2.46 5.31-2.46zm9.6-5.91h1.83v9.15c.54-1.05 1.26-1.86 2.16-2.43.87-.54 1.86-.81 2.94-.81 1.77 0 3.15.51 4.14 1.56s1.5 2.54999999 1.5 4.46999999v9.9h-1.8v-9.66c0-1.5-.39-2.67-1.14-3.50999999-.78-.81-1.83-1.2-3.21-1.2-1.29 0-2.37.51-3.27 1.56-.9 1.01999999-1.32 2.30999999-1.32 3.83999999v8.97h-1.83zm38.04 0h1.8v21.83999999h-1.71v-3.06c-1.08 2.31-2.88 3.48-5.43 3.48-2.25 0-3.99-.84-5.25-2.46-1.14-1.5-1.71-3.42-1.71-5.73 0-2.28.57-4.17 1.71-5.66999999 1.26-1.68 2.97-2.49 5.16-2.49 2.46 0 4.29 1.23 5.43 3.68999999zm-5.1 7.44c-1.77 0-3.12.66-4.08 1.98-.87 1.13999999-1.29 2.69999999-1.29 4.64999999s.42 3.51 1.26 4.68c.93 1.32 2.28 1.98 4.05 1.98 1.68 0 3-.66 3.93-1.92.84-1.17 1.29-2.67 1.29-4.5v-.36c0-1.92-.48-3.45-1.38-4.64999999-.96-1.26-2.22-1.86-3.78-1.86zm16.95-1.53c2.46 0 4.29.81 5.52 2.49 1.08 1.46999999 1.68 3.53999999 1.77 6.20999999h-12.6c.09 1.89.6 3.39 1.53 4.47.96 1.08 2.22 1.62 3.84 1.62 1.41 0 2.55-.39 3.42-1.11.72-.63 1.26-1.53 1.65-2.73h1.83c-.36 1.5-1.05 2.73-2.07 3.69-1.26 1.14-2.85 1.71-4.83 1.71-2.19 0-3.93-.75-5.22-2.22-1.35-1.5-2.01-3.51-2.01-5.97 0-2.28.63-4.17 1.92-5.72999999 1.32-1.62 3.06-2.43 5.25-2.43zm.03 1.56c-1.53 0-2.76.51-3.69 1.59-.93 1.04999999-1.47 2.39999999-1.62 4.07999999h10.68c-.3-3.77999999-2.1-5.66999999-5.37-5.66999999zm16.68-1.56c1.86 0 3.36.45 4.53 1.35s1.89 2.27999999 2.13 4.13999999h-1.8c-.21-1.32-.72-2.27999999-1.56-2.93999999s-1.95-.99-3.3-.99c-1.62 0-2.94.63-3.9 1.89-.96 1.19999999-1.41 2.81999999-1.41 4.82999999 0 1.98.45 3.57 1.35 4.74s2.22 1.77 3.93 1.77c2.88 0 4.53-1.47 4.98-4.41h1.77c-.3 1.95-1.05 3.45-2.22 4.47-1.14.99-2.67 1.5-4.53 1.5-2.28 0-4.08-.78-5.34-2.34-1.2-1.44-1.77-3.36-1.77-5.73 0-2.34.6-4.29 1.83-5.81999999 1.29-1.65 3.06-2.46 5.31-2.46zm11.4-5.16c.42 0 .78.15 1.08.45.3.24.45.6.45 1.05 0 .42-.18.78-.48 1.08-.3.27-.63.42-1.05.42-.45 0-.81-.15-1.08-.42-.3-.3-.45-.66-.45-1.08 0-.45.15-.81.45-1.05.27-.3.63-.45 1.08-.45zm-.9 5.58h1.8v15.50999999h-1.8zm18.18-6.33h1.8v21.83999999h-1.71v-3.06c-1.08 2.31-2.88 3.48-5.43 3.48-2.25 0-3.99-.84-5.25-2.46-1.14-1.5-1.71-3.42-1.71-5.73 0-2.28.57-4.17 1.71-5.66999999 1.26-1.68 2.97-2.49 5.16-2.49 2.46 0 4.29 1.23 5.43 3.68999999zm-5.1 7.44c-1.77 0-3.12.66-4.08 1.98-.87 1.13999999-1.29 2.69999999-1.29 4.64999999s.42 3.51 1.26 4.68c.93 1.32 2.28 1.98 4.05 1.98 1.68 0 3-.66 3.93-1.92.84-1.17 1.29-2.67 1.29-4.5v-.36c0-1.92-.48-3.45-1.38-4.64999999-.96-1.26-2.22-1.86-3.78-1.86zm16.95-1.53c2.46 0 4.29.81 5.52 2.49 1.08 1.46999999 1.68 3.53999999 1.77 6.20999999h-12.6c.09 1.89.6 3.39 1.53 4.47.96 1.08 2.22 1.62 3.84 1.62 1.41 0 2.55-.39 3.42-1.11.72-.63 1.26-1.53 1.65-2.73h1.83c-.36 1.5-1.05 2.73-2.07 3.69-1.26 1.14-2.85 1.71-4.83 1.71-2.19 0-3.93-.75-5.22-2.22-1.35-1.5-2.01-3.51-2.01-5.97 0-2.28.63-4.17 1.92-5.72999999 1.32-1.62 3.06-2.43 5.25-2.43zm.03 1.56c-1.53 0-2.76.51-3.69 1.59-.93 1.04999999-1.47 2.39999999-1.62 4.07999999h10.68c-.3-3.77999999-2.1-5.66999999-5.37-5.66999999zm15.42-1.56c3.66 0 5.73 1.59 6.18 4.76999999h-1.77c-.21-1.08-.63-1.85999999-1.29-2.36999999-.72-.57-1.77-.84-3.15-.84-1.14 0-2.07.21-2.79.69s-1.08 1.08-1.08 1.85999999c0 .78.45 1.41 1.38 1.89.6.3 1.68.66 3.27 1.08 1.89.48 3.24.96 4.02 1.44 1.23.75 1.86 1.8 1.86 3.12 0 3.12-2.1 4.71-6.3 4.71-3.99 0-6.15-1.77-6.51-5.31h1.77c.18 1.35.66 2.34 1.44 2.94.72.54 1.8.81 3.24.81 3 0 4.5-1.02 4.5-3.06 0-.93-.51-1.65-1.53-2.16-.54-.27-1.68-.63-3.45-1.08-1.8-.48-3.06-.93-3.78-1.38-1.2-.72-1.77-1.71-1.77-2.97 0-1.25999999.54-2.24999999 1.68-3.02999999 1.08-.75 2.46-1.11 4.08-1.11z"/><path d="m1.89 41.16h1.83v9.15c.54-1.05 1.26-1.86 2.16-2.43.87-.54 1.86-.81 2.94-.81 1.77 0 3.15.51 4.14 1.56s1.5 2.55 1.5 4.47v9.9h-1.8v-9.66c0-1.5-.39-2.67-1.14-3.51-.78-.81-1.83-1.2-3.21-1.2-1.29 0-2.37.51-3.27 1.56-.9 1.02-1.32 2.31-1.32 3.84v8.97h-1.83zm23.13 5.91c2.28 0 4.11.81 5.49 2.46 1.26 1.53 1.89 3.45 1.89 5.73s-.63 4.17-1.89 5.7c-1.38 1.62-3.21 2.46-5.49 2.46s-4.11-.84-5.49-2.46c-1.26-1.53-1.89-3.42-1.89-5.7s.63-4.2 1.92-5.73c1.35-1.65 3.18-2.46 5.46-2.46zm0 1.56c-1.77 0-3.15.66-4.17 2.04-.93 1.2-1.38 2.73-1.38 4.59 0 1.83.45 3.36 1.38 4.56 1.02 1.35 2.4 2.04 4.17 2.04s3.18-.69 4.2-2.04c.9-1.23 1.38-2.76 1.38-4.56 0-1.86-.48-3.39-1.38-4.59-1.02-1.38-2.43-2.04-4.2-2.04zm8.82-1.14h2.01l4.2 13.2 3.9-13.2h1.74l3.9 13.2 4.23-13.2h1.98l-5.31 15.51h-1.74l-3.9-13.17-3.96 13.17h-1.71z"/><path d="m71.89 41.58h3.3v2.88h-2.82c-.45 0-.78.12-1.02.36s-.33.6-.33 1.11v1.56h3.96v2.79h-3.96v12.72h-3.42v-12.72h-3.45v-2.79h3.45v-1.65c0-1.32.36-2.37 1.11-3.12.72-.78 1.8-1.14 3.18-1.14zm12.3 5.49c2.28 0 3.99.57 5.07 1.71.96.99 1.44 2.43 1.44 4.32v9.9h-3.18v-2.04c-.6.78-1.35 1.35-2.22 1.77-.99.45-2.16.69-3.51.69-1.62 0-2.88-.42-3.81-1.23-.96-.84-1.44-1.89-1.44-3.18 0-1.74.66-3.09 2.04-4.02 1.26-.9 3.03-1.38 5.31-1.44l3.39-.09v-.6c0-2.04-1.11-3.03-3.33-3.03-.96 0-1.71.15-2.28.51-.66.39-1.11.99-1.29 1.8l-3.39-.27c.33-1.71 1.17-2.97 2.52-3.75 1.14-.72 2.7-1.05 4.68-1.05zm3.09 8.85-3.15.09c-2.73.06-4.08 1.02-4.08 2.88 0 .54.21.99.69 1.35s1.08.57 1.83.57c1.32 0 2.43-.39 3.33-1.14.9-.78 1.38-1.77 1.38-2.97zm12.87-8.85c4.08 0 6.33 1.62 6.69 4.92h-3.33c-.24-.78-.6-1.35-1.08-1.65-.51-.33-1.29-.48-2.34-.48-.9 0-1.59.12-2.04.39-.54.27-.78.69-.78 1.29 0 .48.39.93 1.23 1.29.51.21 1.53.51 3.09.9 1.74.42 3.06.9 3.9 1.47 1.23.78 1.86 1.89 1.86 3.27 0 3.3-2.34 4.95-6.99 4.95-4.32 0-6.63-1.83-6.96-5.46h3.33c.18.99.54 1.68 1.05 2.1.51.36 1.32.57 2.46.57 2.4 0 3.6-.66 3.6-1.92 0-.72-.45-1.29-1.35-1.71-.48-.24-1.5-.51-3.06-.87-1.83-.42-3.12-.87-3.87-1.35-1.2-.75-1.8-1.8-1.8-3.15 0-1.44.57-2.55 1.77-3.33 1.17-.84 2.7-1.23 4.62-1.23zm14.76-4.59v5.01h3.45v2.82h-3.45v8.76c0 .36.06.63.24.84.18.18.42.27.78.27h2.04v2.82h-2.61c-1.35 0-2.34-.36-2.97-1.08-.6-.66-.9-1.59-.9-2.85v-8.76h-2.79v-2.82h2.79v-3.6zm22.65 4.59c2.16 0 3.78.57 4.83 1.77.9.99 1.38 2.37 1.38 4.17v9.99h-1.71v-2.97c-.63.9-1.47 1.68-2.49 2.28-1.26.72-2.61 1.11-4.08 1.11-1.5 0-2.73-.39-3.63-1.14-.99-.78-1.47-1.83-1.47-3.09 0-1.8.72-3.12 2.19-3.96 1.26-.81 3.09-1.23 5.43-1.23l3.96-.06v-.93c0-2.94-1.5-4.41-4.5-4.41-1.26 0-2.28.24-3.09.78-.9.57-1.47 1.38-1.71 2.46l-1.77-.12c.3-1.56 1.08-2.76 2.34-3.54 1.11-.75 2.55-1.11 4.32-1.11zm4.41 8.28-3.87.06c-3.93.03-5.88 1.29-5.88 3.75 0 .84.33 1.5.99 2.01s1.56.78 2.64.78c1.56 0 3-.54 4.26-1.62 1.23-1.02 1.86-2.16 1.86-3.36zm12.42-8.28c3.84 0 5.76 2.13 5.76 6.39v9.54h-1.8v-9.42c0-3.3-1.47-4.95-4.41-4.95-1.26 0-2.28.45-3.12 1.35-.9.9-1.38 2.13-1.47 3.66v9.36h-1.8v-15.51h1.8v2.55c.54-.93 1.23-1.65 2.1-2.19s1.86-.78 2.94-.78zm21.24-5.91h1.8v21.84h-1.71v-3.06c-1.08 2.31-2.88 3.48-5.43 3.48-2.25 0-3.99-.84-5.25-2.46-1.14-1.5-1.71-3.42-1.71-5.73 0-2.28.57-4.17 1.71-5.67 1.26-1.68 2.97-2.49 5.16-2.49 2.46 0 4.29 1.23 5.43 3.69zm-5.1 7.44c-1.77 0-3.12.66-4.08 1.98-.87 1.14-1.29 2.7-1.29 4.65s.42 3.51 1.26 4.68c.93 1.32 2.28 1.98 4.05 1.98 1.68 0 3-.66 3.93-1.92.84-1.17 1.29-2.67 1.29-4.5v-.36c0-1.92-.48-3.45-1.38-4.65-.96-1.26-2.22-1.86-3.78-1.86zm27.54-1.53c2.01 0 3.6.45 4.8 1.35 1.23.96 2.01 2.4 2.31 4.35h-3.39c-.21-.99-.63-1.71-1.23-2.19-.63-.48-1.47-.72-2.49-.72-1.26 0-2.25.45-2.97 1.41-.72.93-1.08 2.25-1.08 3.93 0 1.71.33 3.06 1.05 4.02.66.93 1.65 1.41 2.97 1.41 2.28 0 3.54-1.14 3.81-3.39h3.39c-.36 2.1-1.17 3.66-2.4 4.68-1.2.99-2.82 1.5-4.83 1.5-2.4 0-4.26-.78-5.58-2.34-1.29-1.5-1.92-3.45-1.92-5.85 0-2.34.63-4.26 1.89-5.73 1.35-1.62 3.24-2.43 5.67-2.43zm17.07 0c2.34 0 4.23.75 5.67 2.31 1.41 1.53 2.13 3.48 2.13 5.88 0 2.37-.72 4.32-2.1 5.82-1.44 1.56-3.36 2.34-5.7 2.34-2.37 0-4.26-.78-5.7-2.34-1.41-1.5-2.1-3.45-2.1-5.82 0-2.4.69-4.35 2.13-5.88 1.41-1.56 3.3-2.31 5.67-2.31zm0 2.79c-1.44 0-2.52.54-3.3 1.68-.66.96-.99 2.22-.99 3.72s.33 2.73.99 3.69c.78 1.11 1.86 1.68 3.3 1.68 1.41 0 2.52-.57 3.3-1.68.66-.99 1.02-2.22 1.02-3.69 0-1.5-.36-2.76-1.02-3.72-.78-1.14-1.89-1.68-3.3-1.68zm16.65-2.79c4.08 0 6.33 1.62 6.69 4.92h-3.33c-.24-.78-.6-1.35-1.08-1.65-.51-.33-1.29-.48-2.34-.48-.9 0-1.59.12-2.04.39-.54.27-.78.69-.78 1.29 0 .48.39.93 1.23 1.29.51.21 1.53.51 3.09.9 1.74.42 3.06.9 3.9 1.47 1.23.78 1.86 1.89 1.86 3.27 0 3.3-2.34 4.95-6.99 4.95-4.32 0-6.63-1.83-6.96-5.46h3.33c.18.99.54 1.68 1.05 2.1.51.36 1.32.57 2.46.57 2.4 0 3.6-.66 3.6-1.92 0-.72-.45-1.29-1.35-1.71-.48-.24-1.5-.51-3.06-.87-1.83-.42-3.12-.87-3.87-1.35-1.2-.75-1.8-1.8-1.8-3.15 0-1.44.57-2.55 1.77-3.33 1.17-.84 2.7-1.23 4.62-1.23zm14.76-4.59v5.01h3.45v2.82h-3.45v8.76c0 .36.06.63.24.84.18.18.42.27.78.27h2.04v2.82h-2.61c-1.35 0-2.34-.36-2.97-1.08-.6-.66-.9-1.59-.9-2.85v-8.76h-2.79v-2.82h2.79v-3.6zm5.7 11.34h15.15v2.82h-15.15zm25.05-6.75c2.55 0 4.5.84 5.85 2.58 1.23 1.56 1.86 3.75 1.86 6.54h-11.61c.12 1.44.51 2.55 1.17 3.3s1.62 1.14 2.85 1.14c1.05 0 1.89-.24 2.55-.72.51-.39.96-1.02 1.38-1.89h3.42c-.36 1.44-1.08 2.67-2.16 3.63-1.38 1.17-3.09 1.77-5.16 1.77-2.31 0-4.14-.72-5.49-2.13-1.44-1.47-2.16-3.48-2.16-6.06 0-2.31.66-4.23 2.04-5.79 1.32-1.59 3.15-2.37 5.46-2.37zm.09 2.79c-1.14 0-2.01.3-2.67.96-.63.63-1.05 1.56-1.26 2.79h7.98c-.3-2.52-1.65-3.75-4.05-3.75zm16.41-8.28h3.3v2.88h-2.82c-.45 0-.78.12-1.02.36s-.33.6-.33 1.11v1.56h6.03v-1.65c0-1.32.36-2.37 1.11-3.12.72-.78 1.8-1.14 3.18-1.14h3.3v2.88h-2.82c-.45 0-.78.12-1.02.36s-.33.6-.33 1.11v1.56h9.51v15.51h-3.42v-12.72h-6.09v12.72h-3.42v-12.72h-6.03v12.72h-3.42v-12.72h-3.45v-2.79h3.45v-1.65c0-1.32.36-2.37 1.11-3.12.72-.78 1.8-1.14 3.18-1.14zm28.95 5.49c2.01 0 3.6.45 4.8 1.35 1.23.96 2.01 2.4 2.31 4.35h-3.39c-.21-.99-.63-1.71-1.23-2.19-.63-.48-1.47-.72-2.49-.72-1.26 0-2.25.45-2.97 1.41-.72.93-1.08 2.25-1.08 3.93 0 1.71.33 3.06 1.05 4.02.66.93 1.65 1.41 2.97 1.41 2.28 0 3.54-1.14 3.81-3.39h3.39c-.36 2.1-1.17 3.66-2.4 4.68-1.2.99-2.82 1.5-4.83 1.5-2.4 0-4.26-.78-5.58-2.34-1.29-1.5-1.92-3.45-1.92-5.85 0-2.34.63-4.26 1.89-5.73 1.35-1.62 3.24-2.43 5.67-2.43zm12.18-5.91c.66 0 1.23.21 1.68.63.42.42.66.96.66 1.62s-.24 1.23-.69 1.65-.99.63-1.65.63-1.2-.21-1.65-.63c-.45-.45-.66-.99-.66-1.65s.21-1.2.66-1.62.99-.63 1.65-.63zm-1.71 6.33h3.42v15.51h-3.42zm14.25-.42c2.55 0 4.5.84 5.85 2.58 1.23 1.56 1.86 3.75 1.86 6.54h-11.61c.12 1.44.51 2.55 1.17 3.3s1.62 1.14 2.85 1.14c1.05 0 1.89-.24 2.55-.72.51-.39.96-1.02 1.38-1.89h3.42c-.36 1.44-1.08 2.67-2.16 3.63-1.38 1.17-3.09 1.77-5.16 1.77-2.31 0-4.14-.72-5.49-2.13-1.44-1.47-2.16-3.48-2.16-6.06 0-2.31.66-4.23 2.04-5.79 1.32-1.59 3.15-2.37 5.46-2.37zm.09 2.79c-1.14 0-2.01.3-2.67.96-.63.63-1.05 1.56-1.26 2.79h7.98c-.3-2.52-1.65-3.75-4.05-3.75zm18.33-2.79c3.87 0 5.82 2.1 5.82 6.36v9.57h-3.42v-9.27c0-2.55-1.17-3.81-3.51-3.81-.84 0-1.59.3-2.22.9-.72.66-1.14 1.62-1.26 2.85v9.33h-3.42v-15.51h3.42v1.8c.6-.72 1.29-1.29 2.04-1.65.78-.39 1.62-.57 2.55-.57zm14.28-4.59v5.01h3.45v2.82h-3.45v8.76c0 .36.06.63.24.84.18.18.42.27.78.27h2.04v2.82h-2.61c-1.35 0-2.34-.36-2.97-1.08-.6-.66-.9-1.59-.9-2.85v-8.76h-2.79v-2.82h2.79v-3.6zm14.34 5.01h2.01l4.2 13.2 3.9-13.2h1.74l3.9 13.2 4.23-13.2h1.98l-5.31 15.51h-1.74l-3.9-13.17-3.96 13.17h-1.71zm30.27-.42c2.46 0 4.29.81 5.52 2.49 1.08 1.47 1.68 3.54 1.77 6.21h-12.6c.09 1.89.6 3.39 1.53 4.47.96 1.08 2.22 1.62 3.84 1.62 1.41 0 2.55-.39 3.42-1.11.72-.63 1.26-1.53 1.65-2.73h1.83c-.36 1.5-1.05 2.73-2.07 3.69-1.26 1.14-2.85 1.71-4.83 1.71-2.19 0-3.93-.75-5.22-2.22-1.35-1.5-2.01-3.51-2.01-5.97 0-2.28.63-4.17 1.92-5.73 1.32-1.62 3.06-2.43 5.25-2.43zm.03 1.56c-1.53 0-2.76.51-3.69 1.59-.93 1.05-1.47 2.4-1.62 4.08h10.68c-.3-3.78-2.1-5.67-5.37-5.67zm26.67-1.56c1.86 0 3.36.45 4.53 1.35s1.89 2.28 2.13 4.14h-1.8c-.21-1.32-.72-2.28-1.56-2.94s-1.95-.99-3.3-.99c-1.62 0-2.94.63-3.9 1.89-.96 1.2-1.41 2.82-1.41 4.83 0 1.98.45 3.57 1.35 4.74s2.22 1.77 3.93 1.77c2.88 0 4.53-1.47 4.98-4.41h1.77c-.3 1.95-1.05 3.45-2.22 4.47-1.14.99-2.67 1.5-4.53 1.5-2.28 0-4.08-.78-5.34-2.34-1.2-1.44-1.77-3.36-1.77-5.73 0-2.34.6-4.29 1.83-5.82 1.29-1.65 3.06-2.46 5.31-2.46zm16.17 0c2.16 0 3.78.57 4.83 1.77.9.99 1.38 2.37 1.38 4.17v9.99h-1.71v-2.97c-.63.9-1.47 1.68-2.49 2.28-1.26.72-2.61 1.11-4.08 1.11-1.5 0-2.73-.39-3.63-1.14-.99-.78-1.47-1.83-1.47-3.09 0-1.8.72-3.12 2.19-3.96 1.26-.81 3.09-1.23 5.43-1.23l3.96-.06v-.93c0-2.94-1.5-4.41-4.5-4.41-1.26 0-2.28.24-3.09.78-.9.57-1.47 1.38-1.71 2.46l-1.77-.12c.3-1.56 1.08-2.76 2.34-3.54 1.11-.75 2.55-1.11 4.32-1.11zm4.41 8.28-3.87.06c-3.93.03-5.88 1.29-5.88 3.75 0 .84.33 1.5.99 2.01s1.56.78 2.64.78c1.56 0 3-.54 4.26-1.62 1.23-1.02 1.86-2.16 1.86-3.36zm12.42-8.28c3.84 0 5.76 2.13 5.76 6.39v9.54h-1.8v-9.42c0-3.3-1.47-4.95-4.41-4.95-1.26 0-2.28.45-3.12 1.35-.9.9-1.38 2.13-1.47 3.66v9.36h-1.8v-15.51h1.8v2.55c.54-.93 1.23-1.65 2.1-2.19s1.86-.78 2.94-.78z"/><g transform="translate(0 82)"><path d="m1.89 6.49h1.8v9.48c0 1.62.33 2.82 1.02 3.63.72.84 1.83 1.26 3.33 1.26 1.2 0 2.25-.48 3.15-1.38s1.41-2.1 1.53-3.57v-9.42h1.8v15.51h-1.8v-2.61c-1.2 2.01-2.94 3.03-5.16 3.03-3.78 0-5.67-2.13-5.67-6.36zm23.58-.42c2.19 0 3.93.81 5.22 2.49 1.14 1.5 1.71 3.39 1.71 5.73 0 2.28-.57 4.17-1.68 5.67-1.26 1.62-2.97 2.46-5.19 2.46-2.49 0-4.29-1.23-5.43-3.66v9.18h-1.8v-21.45h1.71v3.06c1.14-2.34 2.94-3.48 5.46-3.48zm-.21 1.53c-1.68 0-3 .66-3.93 1.98-.87 1.17-1.29 2.7-1.29 4.59v.33c0 1.86.45 3.39 1.38 4.59s2.19 1.8 3.78 1.8c1.77 0 3.12-.66 4.08-1.92.84-1.17 1.26-2.73 1.26-4.68s-.42-3.51-1.23-4.68c-.96-1.35-2.31-2.01-4.05-2.01zm16.71-1.53c2.55 0 4.41 1.17 5.55 3.54v-3.12h1.8v14.37c0 4.98-2.34 7.5-6.96 7.5-2.04 0-3.6-.45-4.71-1.32-1.05-.84-1.71-2.07-1.98-3.72h1.8c.21 1.14.69 2.01 1.44 2.58.78.63 1.92.96 3.45.96 3.42 0 5.16-1.95 5.16-5.79v-2.97c-1.14 2.34-3 3.54-5.55 3.54-2.16 0-3.9-.78-5.19-2.31-1.2-1.44-1.8-3.24-1.8-5.46 0-2.19.6-4.02 1.8-5.46 1.29-1.56 3.03-2.34 5.19-2.34zm.21 1.53c-1.71 0-3.03.6-3.99 1.86-.93 1.14-1.38 2.61-1.38 4.41 0 1.74.42 3.18 1.29 4.32.93 1.26 2.28 1.89 4.05 1.89 1.71 0 3.06-.6 4.02-1.8.9-1.14 1.35-2.61 1.35-4.41s-.45-3.27-1.35-4.41c-.96-1.26-2.31-1.86-3.99-1.86zm17.43-1.53c.9 0 1.65.09 2.25.33v1.83c-.81-.24-1.59-.33-2.37-.33-1.38 0-2.52.6-3.36 1.86-.84 1.14-1.23 2.49-1.23 4.05v8.19h-1.8v-15.51h1.8v2.97c.42-.96.99-1.74 1.71-2.31.84-.72 1.86-1.08 3-1.08zm10.86 0c2.16 0 3.78.57 4.83 1.77.9.99 1.38 2.37 1.38 4.17v9.99h-1.71v-2.97c-.63.9-1.47 1.68-2.49 2.28-1.26.72-2.61 1.11-4.08 1.11-1.5 0-2.73-.39-3.63-1.14-.99-.78-1.47-1.83-1.47-3.09 0-1.8.72-3.12 2.19-3.96 1.26-.81 3.09-1.23 5.43-1.23l3.96-.06v-.93c0-2.94-1.5-4.41-4.5-4.41-1.26 0-2.28.24-3.09.78-.9.57-1.47 1.38-1.71 2.46l-1.77-.12c.3-1.56 1.08-2.76 2.34-3.54 1.11-.75 2.55-1.11 4.32-1.11zm4.41 8.28-3.87.06c-3.93.03-5.88 1.29-5.88 3.75 0 .84.33 1.5.99 2.01s1.56.78 2.64.78c1.56 0 3-.54 4.26-1.62 1.23-1.02 1.86-2.16 1.86-3.36zm17.28-14.19h1.8v21.84h-1.71v-3.06c-1.08 2.31-2.88 3.48-5.43 3.48-2.25 0-3.99-.84-5.25-2.46-1.14-1.5-1.71-3.42-1.71-5.73 0-2.28.57-4.17 1.71-5.67 1.26-1.68 2.97-2.49 5.16-2.49 2.46 0 4.29 1.23 5.43 3.69zm-5.1 7.44c-1.77 0-3.12.66-4.08 1.98-.87 1.14-1.29 2.7-1.29 4.65s.42 3.51 1.26 4.68c.93 1.32 2.28 1.98 4.05 1.98 1.68 0 3-.66 3.93-1.92.84-1.17 1.29-2.67 1.29-4.5v-.36c0-1.92-.48-3.45-1.38-4.65-.96-1.26-2.22-1.86-3.78-1.86zm16.95-1.53c2.46 0 4.29.81 5.52 2.49 1.08 1.47 1.68 3.54 1.77 6.21h-12.6c.09 1.89.6 3.39 1.53 4.47.96 1.08 2.22 1.62 3.84 1.62 1.41 0 2.55-.39 3.42-1.11.72-.63 1.26-1.53 1.65-2.73h1.83c-.36 1.5-1.05 2.73-2.07 3.69-1.26 1.14-2.85 1.71-4.83 1.71-2.19 0-3.93-.75-5.22-2.22-1.35-1.5-2.01-3.51-2.01-5.97 0-2.28.63-4.17 1.92-5.73 1.32-1.62 3.06-2.43 5.25-2.43zm.03 1.56c-1.53 0-2.76.51-3.69 1.59-.93 1.05-1.47 2.4-1.62 4.08h10.68c-.3-3.78-2.1-5.67-5.37-5.67zm23.88-6.15v5.01h4.05v1.56h-4.05v10.5c0 .66.12 1.17.36 1.47.24.27.69.42 1.35.42h1.95v1.56h-2.19c-1.2 0-2.07-.33-2.58-.93-.48-.54-.69-1.38-.69-2.52v-10.5h-3.3v-1.56h3.3v-4.26zm6.78-1.32h1.83v9.15c.54-1.05 1.26-1.86 2.16-2.43.87-.54 1.86-.81 2.94-.81 1.77 0 3.15.51 4.14 1.56s1.5 2.55 1.5 4.47v9.9h-1.8v-9.66c0-1.5-.39-2.67-1.14-3.51-.78-.81-1.83-1.2-3.21-1.2-1.29 0-2.37.51-3.27 1.56-.9 1.02-1.32 2.31-1.32 3.84v8.97h-1.83zm22.62 5.91c2.46 0 4.29.81 5.52 2.49 1.08 1.47 1.68 3.54 1.77 6.21h-12.6c.09 1.89.6 3.39 1.53 4.47.96 1.08 2.22 1.62 3.84 1.62 1.41 0 2.55-.39 3.42-1.11.72-.63 1.26-1.53 1.65-2.73h1.83c-.36 1.5-1.05 2.73-2.07 3.69-1.26 1.14-2.85 1.71-4.83 1.71-2.19 0-3.93-.75-5.22-2.22-1.35-1.5-2.01-3.51-2.01-5.97 0-2.28.63-4.17 1.92-5.73 1.32-1.62 3.06-2.43 5.25-2.43zm.03 1.56c-1.53 0-2.76.51-3.69 1.59-.93 1.05-1.47 2.4-1.62 4.08h10.68c-.3-3.78-2.1-5.67-5.37-5.67zm26.7-1.56c2.16 0 3.78.57 4.83 1.77.9.99 1.38 2.37 1.38 4.17v9.99h-1.71v-2.97c-.63.9-1.47 1.68-2.49 2.28-1.26.72-2.61 1.11-4.08 1.11-1.5 0-2.73-.39-3.63-1.14-.99-.78-1.47-1.83-1.47-3.09 0-1.8.72-3.12 2.19-3.96 1.26-.81 3.09-1.23 5.43-1.23l3.96-.06v-.93c0-2.94-1.5-4.41-4.5-4.41-1.26 0-2.28.24-3.09.78-.9.57-1.47 1.38-1.71 2.46l-1.77-.12c.3-1.56 1.08-2.76 2.34-3.54 1.11-.75 2.55-1.11 4.32-1.11zm4.41 8.28-3.87.06c-3.93.03-5.88 1.29-5.88 3.75 0 .84.33 1.5.99 2.01s1.56.78 2.64.78c1.56 0 3-.54 4.26-1.62 1.23-1.02 1.86-2.16 1.86-3.36zm6.15-14.19h1.8v21.84h-1.8zm12.54 5.91c2.55 0 4.41 1.17 5.55 3.54v-3.12h1.8v14.37c0 4.98-2.34 7.5-6.96 7.5-2.04 0-3.6-.45-4.71-1.32-1.05-.84-1.71-2.07-1.98-3.72h1.8c.21 1.14.69 2.01 1.44 2.58.78.63 1.92.96 3.45.96 3.42 0 5.16-1.95 5.16-5.79v-2.97c-1.14 2.34-3 3.54-5.55 3.54-2.16 0-3.9-.78-5.19-2.31-1.2-1.44-1.8-3.24-1.8-5.46 0-2.19.6-4.02 1.8-5.46 1.29-1.56 3.03-2.34 5.19-2.34zm.21 1.53c-1.71 0-3.03.6-3.99 1.86-.93 1.14-1.38 2.61-1.38 4.41 0 1.74.42 3.18 1.29 4.32.93 1.26 2.28 1.89 4.05 1.89 1.71 0 3.06-.6 4.02-1.8.9-1.14 1.35-2.61 1.35-4.41s-.45-3.27-1.35-4.41c-.96-1.26-2.31-1.86-3.99-1.86zm17.7-1.53c2.28 0 4.11.81 5.49 2.46 1.26 1.53 1.89 3.45 1.89 5.73s-.63 4.17-1.89 5.7c-1.38 1.62-3.21 2.46-5.49 2.46s-4.11-.84-5.49-2.46c-1.26-1.53-1.89-3.42-1.89-5.7s.63-4.2 1.92-5.73c1.35-1.65 3.18-2.46 5.46-2.46zm0 1.56c-1.77 0-3.15.66-4.17 2.04-.93 1.2-1.38 2.73-1.38 4.59 0 1.83.45 3.36 1.38 4.56 1.02 1.35 2.4 2.04 4.17 2.04s3.18-.69 4.2-2.04c.9-1.23 1.38-2.76 1.38-4.56 0-1.86-.48-3.39-1.38-4.59-1.02-1.38-2.43-2.04-4.2-2.04zm17.07-1.56c.9 0 1.65.09 2.25.33v1.83c-.81-.24-1.59-.33-2.37-.33-1.38 0-2.52.6-3.36 1.86-.84 1.14-1.23 2.49-1.23 4.05v8.19h-1.8v-15.51h1.8v2.97c.42-.96.99-1.74 1.71-2.31.84-.72 1.86-1.08 3-1.08zm6.09-5.16c.42 0 .78.15 1.08.45.3.24.45.6.45 1.05 0 .42-.18.78-.48 1.08-.3.27-.63.42-1.05.42-.45 0-.81-.15-1.08-.42-.3-.3-.45-.66-.45-1.08 0-.45.15-.81.45-1.05.27-.3.63-.45 1.08-.45zm-.9 5.58h1.8v15.51h-1.8zm10.23-5.01v5.01h4.05v1.56h-4.05v10.5c0 .66.12 1.17.36 1.47.24.27.69.42 1.35.42h1.95v1.56h-2.19c-1.2 0-2.07-.33-2.58-.93-.48-.54-.69-1.38-.69-2.52v-10.5h-3.3v-1.56h3.3v-4.26zm6.78-1.32h1.83v9.15c.54-1.05 1.26-1.86 2.16-2.43.87-.54 1.86-.81 2.94-.81 1.77 0 3.15.51 4.14 1.56s1.5 2.55 1.5 4.47v9.9h-1.8v-9.66c0-1.5-.39-2.67-1.14-3.51-.78-.81-1.83-1.2-3.21-1.2-1.29 0-2.37.51-3.27 1.56-.9 1.02-1.32 2.31-1.32 3.84v8.97h-1.83zm22.65 5.91c2.46 0 4.08 1.05 4.86 3.18.54-1.05 1.23-1.83 2.07-2.37.78-.54 1.74-.81 2.82-.81 1.62 0 2.94.51 3.9 1.53.93 1.02 1.41 2.43 1.41 4.26v10.14h-1.8v-9.9c0-1.47-.3-2.58-.9-3.3-.66-.78-1.71-1.17-3.09-1.17-1.14 0-2.07.42-2.82 1.29-.78.84-1.14 1.89-1.14 3.21v9.87h-1.83v-9.9c0-3-1.29-4.47-3.87-4.47-1.17 0-2.13.45-2.91 1.41-.81.93-1.2 2.07-1.2 3.42v9.54h-1.8v-15.51h1.8v2.34c1.11-1.86 2.61-2.76 4.5-2.76zm28.83-5.91h1.8v9.6c1.14-2.46 2.94-3.69 5.43-3.69 2.16 0 3.9.81 5.16 2.49 1.14 1.5 1.71 3.39 1.71 5.67 0 2.31-.57 4.23-1.71 5.73-1.26 1.62-3 2.46-5.22 2.46-2.58 0-4.41-1.17-5.46-3.48v3.06h-1.71zm6.9 7.44c-1.59 0-2.85.6-3.78 1.86-.93 1.2-1.38 2.73-1.38 4.65v.36c0 1.83.42 3.33 1.29 4.5.9 1.26 2.22 1.92 3.93 1.92 1.74 0 3.09-.66 4.05-1.98.84-1.17 1.26-2.73 1.26-4.68s-.45-3.51-1.29-4.65c-.96-1.32-2.31-1.98-4.08-1.98zm8.64-1.11h1.98l5.07 12.93 5.01-12.93h1.98l-8.55 21.45h-1.95l2.61-6.33zm26.07 0h1.8v9.48c0 1.62.33 2.82 1.02 3.63.72.84 1.83 1.26 3.33 1.26 1.2 0 2.25-.48 3.15-1.38s1.41-2.1 1.53-3.57v-9.42h1.8v15.51h-1.8v-2.61c-1.2 2.01-2.94 3.03-5.16 3.03-3.78 0-5.67-2.13-5.67-6.36zm21.69-.42c3.66 0 5.73 1.59 6.18 4.77h-1.77c-.21-1.08-.63-1.86-1.29-2.37-.72-.57-1.77-.84-3.15-.84-1.14 0-2.07.21-2.79.69s-1.08 1.08-1.08 1.86.45 1.41 1.38 1.89c.6.3 1.68.66 3.27 1.08 1.89.48 3.24.96 4.02 1.44 1.23.75 1.86 1.8 1.86 3.12 0 3.12-2.1 4.71-6.3 4.71-3.99 0-6.15-1.77-6.51-5.31h1.77c.18 1.35.66 2.34 1.44 2.94.72.54 1.8.81 3.24.81 3 0 4.5-1.02 4.5-3.06 0-.93-.51-1.65-1.53-2.16-.54-.27-1.68-.63-3.45-1.08-1.8-.48-3.06-.93-3.78-1.38-1.2-.72-1.77-1.71-1.77-2.97s.54-2.25 1.68-3.03c1.08-.75 2.46-1.11 4.08-1.11zm11.31-5.16c.42 0 .78.15 1.08.45.3.24.45.6.45 1.05 0 .42-.18.78-.48 1.08-.3.27-.63.42-1.05.42-.45 0-.81-.15-1.08-.42-.3-.3-.45-.66-.45-1.08 0-.45.15-.81.45-1.05.27-.3.63-.45 1.08-.45zm-.9 5.58h1.8v15.51h-1.8zm13.32-.42c3.84 0 5.76 2.13 5.76 6.39v9.54h-1.8v-9.42c0-3.3-1.47-4.95-4.41-4.95-1.26 0-2.28.45-3.12 1.35-.9.9-1.38 2.13-1.47 3.66v9.36h-1.8v-15.51h1.8v2.55c.54-.93 1.23-1.65 2.1-2.19s1.86-.78 2.94-.78zm15.93 0c2.55 0 4.41 1.17 5.55 3.54v-3.12h1.8v14.37c0 4.98-2.34 7.5-6.96 7.5-2.04 0-3.6-.45-4.71-1.32-1.05-.84-1.71-2.07-1.98-3.72h1.8c.21 1.14.69 2.01 1.44 2.58.78.63 1.92.96 3.45.96 3.42 0 5.16-1.95 5.16-5.79v-2.97c-1.14 2.34-3 3.54-5.55 3.54-2.16 0-3.9-.78-5.19-2.31-1.2-1.44-1.8-3.24-1.8-5.46 0-2.19.6-4.02 1.8-5.46 1.29-1.56 3.03-2.34 5.19-2.34zm.21 1.53c-1.71 0-3.03.6-3.99 1.86-.93 1.14-1.38 2.61-1.38 4.41 0 1.74.42 3.18 1.29 4.32.93 1.26 2.28 1.89 4.05 1.89 1.71 0 3.06-.6 4.02-1.8.9-1.14 1.35-2.61 1.35-4.41s-.45-3.27-1.35-4.41c-.96-1.26-2.31-1.86-3.99-1.86zm24.66-6.12v5.01h4.05v1.56h-4.05v10.5c0 .66.12 1.17.36 1.47.24.27.69.42 1.35.42h1.95v1.56h-2.19c-1.2 0-2.07-.33-2.58-.93-.48-.54-.69-1.38-.69-2.52v-10.5h-3.3v-1.56h3.3v-4.26zm6.78-1.32h1.83v9.15c.54-1.05 1.26-1.86 2.16-2.43.87-.54 1.86-.81 2.94-.81 1.77 0 3.15.51 4.14 1.56s1.5 2.55 1.5 4.47v9.9h-1.8v-9.66c0-1.5-.39-2.67-1.14-3.51-.78-.81-1.83-1.2-3.21-1.2-1.29 0-2.37.51-3.27 1.56-.9 1.02-1.32 2.31-1.32 3.84v8.97h-1.83zm22.62 5.91c2.46 0 4.29.81 5.52 2.49 1.08 1.47 1.68 3.54 1.77 6.21h-12.6c.09 1.89.6 3.39 1.53 4.47.96 1.08 2.22 1.62 3.84 1.62 1.41 0 2.55-.39 3.42-1.11.72-.63 1.26-1.53 1.65-2.73h1.83c-.36 1.5-1.05 2.73-2.07 3.69-1.26 1.14-2.85 1.71-4.83 1.71-2.19 0-3.93-.75-5.22-2.22-1.35-1.5-2.01-3.51-2.01-5.97 0-2.28.63-4.17 1.92-5.73 1.32-1.62 3.06-2.43 5.25-2.43zm.03 1.56c-1.53 0-2.76.51-3.69 1.59-.93 1.05-1.47 2.4-1.62 4.08h10.68c-.3-3.78-2.1-5.67-5.37-5.67z"/><path d="m8.19 45.07c2.46 0 4.08 1.05 4.86 3.18.54-1.05 1.23-1.83 2.07-2.37.78-.54 1.74-.81 2.82-.81 1.62 0 2.94.51 3.9 1.53.93 1.02 1.41 2.43 1.41 4.26v10.14h-1.8v-9.9c0-1.47-.3-2.58-.9-3.3-.66-.78-1.71-1.17-3.09-1.17-1.14 0-2.07.42-2.82 1.29-.78.84-1.14 1.89-1.14 3.21v9.87h-1.83v-9.9c0-3-1.29-4.47-3.87-4.47-1.17 0-2.13.45-2.91 1.41-.81.93-1.2 2.07-1.2 3.42v9.54h-1.8v-15.51h1.8v2.34c1.11-1.86 2.61-2.76 4.5-2.76zm25.41 0c2.16 0 3.78.57 4.83 1.77.9.99 1.38 2.37 1.38 4.17v9.99h-1.71v-2.97c-.63.9-1.47 1.68-2.49 2.28-1.26.72-2.61 1.11-4.08 1.11-1.5 0-2.73-.39-3.63-1.14-.99-.78-1.47-1.83-1.47-3.09 0-1.8.72-3.12 2.19-3.96 1.26-.81 3.09-1.23 5.43-1.23l3.96-.06v-.93c0-2.94-1.5-4.41-4.5-4.41-1.26 0-2.28.24-3.09.78-.9.57-1.47 1.38-1.71 2.46l-1.77-.12c.3-1.56 1.08-2.76 2.34-3.54 1.11-.75 2.55-1.11 4.32-1.11zm4.41 8.28-3.87.06c-3.93.03-5.88 1.29-5.88 3.75 0 .84.33 1.5.99 2.01s1.56.78 2.64.78c1.56 0 3-.54 4.26-1.62 1.23-1.02 1.86-2.16 1.86-3.36zm10.86-8.28c3.66 0 5.73 1.59 6.18 4.77h-1.77c-.21-1.08-.63-1.86-1.29-2.37-.72-.57-1.77-.84-3.15-.84-1.14 0-2.07.21-2.79.69s-1.08 1.08-1.08 1.86.45 1.41 1.38 1.89c.6.3 1.68.66 3.27 1.08 1.89.48 3.24.96 4.02 1.44 1.23.75 1.86 1.8 1.86 3.12 0 3.12-2.1 4.71-6.3 4.71-3.99 0-6.15-1.77-6.51-5.31h1.77c.18 1.35.66 2.34 1.44 2.94.72.54 1.8.81 3.24.81 3 0 4.5-1.02 4.5-3.06 0-.93-.51-1.65-1.53-2.16-.54-.27-1.68-.63-3.45-1.08-1.8-.48-3.06-.93-3.78-1.38-1.2-.72-1.77-1.71-1.77-2.97s.54-2.25 1.68-3.03c1.08-.75 2.46-1.11 4.08-1.11zm14.79 0c3.66 0 5.73 1.59 6.18 4.77h-1.77c-.21-1.08-.63-1.86-1.29-2.37-.72-.57-1.77-.84-3.15-.84-1.14 0-2.07.21-2.79.69s-1.08 1.08-1.08 1.86.45 1.41 1.38 1.89c.6.3 1.68.66 3.27 1.08 1.89.48 3.24.96 4.02 1.44 1.23.75 1.86 1.8 1.86 3.12 0 3.12-2.1 4.71-6.3 4.71-3.99 0-6.15-1.77-6.51-5.31h1.77c.18 1.35.66 2.34 1.44 2.94.72.54 1.8.81 3.24.81 3 0 4.5-1.02 4.5-3.06 0-.93-.51-1.65-1.53-2.16-.54-.27-1.68-.63-3.45-1.08-1.8-.48-3.06-.93-3.78-1.38-1.2-.72-1.77-1.71-1.77-2.97s.54-2.25 1.68-3.03c1.08-.75 2.46-1.11 4.08-1.11zm11.31-5.16c.42 0 .78.15 1.08.45.3.24.45.6.45 1.05 0 .42-.18.78-.48 1.08-.3.27-.63.42-1.05.42-.45 0-.81-.15-1.08-.42-.3-.3-.45-.66-.45-1.08 0-.45.15-.81.45-1.05.27-.3.63-.45 1.08-.45zm-.9 5.58h1.8v15.51h-1.8zm4.74 0h1.98l4.89 13.23 4.86-13.23h2.01l-5.94 15.51h-1.86zm22.05-.42c2.46 0 4.29.81 5.52 2.49 1.08 1.47 1.68 3.54 1.77 6.21h-12.6c.09 1.89.6 3.39 1.53 4.47.96 1.08 2.22 1.62 3.84 1.62 1.41 0 2.55-.39 3.42-1.11.72-.63 1.26-1.53 1.65-2.73h1.83c-.36 1.5-1.05 2.73-2.07 3.69-1.26 1.14-2.85 1.71-4.83 1.71-2.19 0-3.93-.75-5.22-2.22-1.35-1.5-2.01-3.51-2.01-5.97 0-2.28.63-4.17 1.92-5.73 1.32-1.62 3.06-2.43 5.25-2.43zm.03 1.56c-1.53 0-2.76.51-3.69 1.59-.93 1.05-1.47 2.4-1.62 4.08h10.68c-.3-3.78-2.1-5.67-5.37-5.67zm31.83-7.47h1.8v21.84h-1.71v-3.06c-1.08 2.31-2.88 3.48-5.43 3.48-2.25 0-3.99-.84-5.25-2.46-1.14-1.5-1.71-3.42-1.71-5.73 0-2.28.57-4.17 1.71-5.67 1.26-1.68 2.97-2.49 5.16-2.49 2.46 0 4.29 1.23 5.43 3.69zm-5.1 7.44c-1.77 0-3.12.66-4.08 1.98-.87 1.14-1.29 2.7-1.29 4.65s.42 3.51 1.26 4.68c.93 1.32 2.28 1.98 4.05 1.98 1.68 0 3-.66 3.93-1.92.84-1.17 1.29-2.67 1.29-4.5v-.36c0-1.92-.48-3.45-1.38-4.65-.96-1.26-2.22-1.86-3.78-1.86zm17.25-1.53c2.16 0 3.78.57 4.83 1.77.9.99 1.38 2.37 1.38 4.17v9.99h-1.71v-2.97c-.63.9-1.47 1.68-2.49 2.28-1.26.72-2.61 1.11-4.08 1.11-1.5 0-2.73-.39-3.63-1.14-.99-.78-1.47-1.83-1.47-3.09 0-1.8.72-3.12 2.19-3.96 1.26-.81 3.09-1.23 5.43-1.23l3.96-.06v-.93c0-2.94-1.5-4.41-4.5-4.41-1.26 0-2.28.24-3.09.78-.9.57-1.47 1.38-1.71 2.46l-1.77-.12c.3-1.56 1.08-2.76 2.34-3.54 1.11-.75 2.55-1.11 4.32-1.11zm4.41 8.28-3.87.06c-3.93.03-5.88 1.29-5.88 3.75 0 .84.33 1.5.99 2.01s1.56.78 2.64.78c1.56 0 3-.54 4.26-1.62 1.23-1.02 1.86-2.16 1.86-3.36zm9.33-12.87v5.01h4.05v1.56h-4.05v10.5c0 .66.12 1.17.36 1.47.24.27.69.42 1.35.42h1.95v1.56h-2.19c-1.2 0-2.07-.33-2.58-.93-.48-.54-.69-1.38-.69-2.52v-10.5h-3.3v-1.56h3.3v-4.26zm13.35 4.59c2.16 0 3.78.57 4.83 1.77.9.99 1.38 2.37 1.38 4.17v9.99h-1.71v-2.97c-.63.9-1.47 1.68-2.49 2.28-1.26.72-2.61 1.11-4.08 1.11-1.5 0-2.73-.39-3.63-1.14-.99-.78-1.47-1.83-1.47-3.09 0-1.8.72-3.12 2.19-3.96 1.26-.81 3.09-1.23 5.43-1.23l3.96-.06v-.93c0-2.94-1.5-4.41-4.5-4.41-1.26 0-2.28.24-3.09.78-.9.57-1.47 1.38-1.71 2.46l-1.77-.12c.3-1.56 1.08-2.76 2.34-3.54 1.11-.75 2.55-1.11 4.32-1.11zm4.41 8.28-3.87.06c-3.93.03-5.88 1.29-5.88 3.75 0 .84.33 1.5.99 2.01s1.56.78 2.64.78c1.56 0 3-.54 4.26-1.62 1.23-1.02 1.86-2.16 1.86-3.36zm21.87-13.77h2.76v1.59h-2.61c-.78 0-1.35.18-1.71.6-.36.39-.54 1.02-.54 1.92v1.8h4.65v1.56h-4.65v13.95h-1.8v-13.95h-4.14v-1.56h4.14v-1.83c0-1.29.3-2.28.96-2.97.66-.75 1.62-1.11 2.94-1.11zm11.31 5.49c.9 0 1.65.09 2.25.33v1.83c-.81-.24-1.59-.33-2.37-.33-1.38 0-2.52.6-3.36 1.86-.84 1.14-1.23 2.49-1.23 4.05v8.19h-1.8v-15.51h1.8v2.97c.42-.96.99-1.74 1.71-2.31.84-.72 1.86-1.08 3-1.08zm11.07 0c2.28 0 4.11.81 5.49 2.46 1.26 1.53 1.89 3.45 1.89 5.73s-.63 4.17-1.89 5.7c-1.38 1.62-3.21 2.46-5.49 2.46s-4.11-.84-5.49-2.46c-1.26-1.53-1.89-3.42-1.89-5.7s.63-4.2 1.92-5.73c1.35-1.65 3.18-2.46 5.46-2.46zm0 1.56c-1.77 0-3.15.66-4.17 2.04-.93 1.2-1.38 2.73-1.38 4.59 0 1.83.45 3.36 1.38 4.56 1.02 1.35 2.4 2.04 4.17 2.04s3.18-.69 4.2-2.04c.9-1.23 1.38-2.76 1.38-4.56 0-1.86-.48-3.39-1.38-4.59-1.02-1.38-2.43-2.04-4.2-2.04zm16.86-1.56c2.46 0 4.08 1.05 4.86 3.18.54-1.05 1.23-1.83 2.07-2.37.78-.54 1.74-.81 2.82-.81 1.62 0 2.94.51 3.9 1.53.93 1.02 1.41 2.43 1.41 4.26v10.14h-1.8v-9.9c0-1.47-.3-2.58-.9-3.3-.66-.78-1.71-1.17-3.09-1.17-1.14 0-2.07.42-2.82 1.29-.78.84-1.14 1.89-1.14 3.21v9.87h-1.83v-9.9c0-3-1.29-4.47-3.87-4.47-1.17 0-2.13.45-2.91 1.41-.81.93-1.2 2.07-1.2 3.42v9.54h-1.8v-15.51h1.8v2.34c1.11-1.86 2.61-2.76 4.5-2.76zm35.37 0c1.86 0 3.36.45 4.53 1.35s1.89 2.28 2.13 4.14h-1.8c-.21-1.32-.72-2.28-1.56-2.94s-1.95-.99-3.3-.99c-1.62 0-2.94.63-3.9 1.89-.96 1.2-1.41 2.82-1.41 4.83 0 1.98.45 3.57 1.35 4.74s2.22 1.77 3.93 1.77c2.88 0 4.53-1.47 4.98-4.41h1.77c-.3 1.95-1.05 3.45-2.22 4.47-1.14.99-2.67 1.5-4.53 1.5-2.28 0-4.08-.78-5.34-2.34-1.2-1.44-1.77-3.36-1.77-5.73 0-2.34.6-4.29 1.83-5.82 1.29-1.65 3.06-2.46 5.31-2.46zm16.38 0c2.28 0 4.11.81 5.49 2.46 1.26 1.53 1.89 3.45 1.89 5.73s-.63 4.17-1.89 5.7c-1.38 1.62-3.21 2.46-5.49 2.46s-4.11-.84-5.49-2.46c-1.26-1.53-1.89-3.42-1.89-5.7s.63-4.2 1.92-5.73c1.35-1.65 3.18-2.46 5.46-2.46zm0 1.56c-1.77 0-3.15.66-4.17 2.04-.93 1.2-1.38 2.73-1.38 4.59 0 1.83.45 3.36 1.38 4.56 1.02 1.35 2.4 2.04 4.17 2.04s3.18-.69 4.2-2.04c.9-1.23 1.38-2.76 1.38-4.56 0-1.86-.48-3.39-1.38-4.59-1.02-1.38-2.43-2.04-4.2-2.04zm17.4-1.56c3.84 0 5.76 2.13 5.76 6.39v9.54h-1.8v-9.42c0-3.3-1.47-4.95-4.41-4.95-1.26 0-2.28.45-3.12 1.35-.9.9-1.38 2.13-1.47 3.66v9.36h-1.8v-15.51h1.8v2.55c.54-.93 1.23-1.65 2.1-2.19s1.86-.78 2.94-.78zm14.82 0c3.66 0 5.73 1.59 6.18 4.77h-1.77c-.21-1.08-.63-1.86-1.29-2.37-.72-.57-1.77-.84-3.15-.84-1.14 0-2.07.21-2.79.69s-1.08 1.08-1.08 1.86.45 1.41 1.38 1.89c.6.3 1.68.66 3.27 1.08 1.89.48 3.24.96 4.02 1.44 1.23.75 1.86 1.8 1.86 3.12 0 3.12-2.1 4.71-6.3 4.71-3.99 0-6.15-1.77-6.51-5.31h1.77c.18 1.35.66 2.34 1.44 2.94.72.54 1.8.81 3.24.81 3 0 4.5-1.02 4.5-3.06 0-.93-.51-1.65-1.53-2.16-.54-.27-1.68-.63-3.45-1.08-1.8-.48-3.06-.93-3.78-1.38-1.2-.72-1.77-1.71-1.77-2.97s.54-2.25 1.68-3.03c1.08-.75 2.46-1.11 4.08-1.11zm9.51.42h1.8v9.48c0 1.62.33 2.82 1.02 3.63.72.84 1.83 1.26 3.33 1.26 1.2 0 2.25-.48 3.15-1.38s1.41-2.1 1.53-3.57v-9.42h1.8v15.51h-1.8v-2.61c-1.2 2.01-2.94 3.03-5.16 3.03-3.78 0-5.67-2.13-5.67-6.36zm22.71-.42c2.46 0 4.08 1.05 4.86 3.18.54-1.05 1.23-1.83 2.07-2.37.78-.54 1.74-.81 2.82-.81 1.62 0 2.94.51 3.9 1.53.93 1.02 1.41 2.43 1.41 4.26v10.14h-1.8v-9.9c0-1.47-.3-2.58-.9-3.3-.66-.78-1.71-1.17-3.09-1.17-1.14 0-2.07.42-2.82 1.29-.78.84-1.14 1.89-1.14 3.21v9.87h-1.83v-9.9c0-3-1.29-4.47-3.87-4.47-1.17 0-2.13.45-2.91 1.41-.81.93-1.2 2.07-1.2 3.42v9.54h-1.8v-15.51h1.8v2.34c1.11-1.86 2.61-2.76 4.5-2.76zm25.11 0c2.46 0 4.29.81 5.52 2.49 1.08 1.47 1.68 3.54 1.77 6.21h-12.6c.09 1.89.6 3.39 1.53 4.47.96 1.08 2.22 1.62 3.84 1.62 1.41 0 2.55-.39 3.42-1.11.72-.63 1.26-1.53 1.65-2.73h1.83c-.36 1.5-1.05 2.73-2.07 3.69-1.26 1.14-2.85 1.71-4.83 1.71-2.19 0-3.93-.75-5.22-2.22-1.35-1.5-2.01-3.51-2.01-5.97 0-2.28.63-4.17 1.92-5.73 1.32-1.62 3.06-2.43 5.25-2.43zm.03 1.56c-1.53 0-2.76.51-3.69 1.59-.93 1.05-1.47 2.4-1.62 4.08h10.68c-.3-3.78-2.1-5.67-5.37-5.67zm16.65-1.56c.9 0 1.65.09 2.25.33v1.83c-.81-.24-1.59-.33-2.37-.33-1.38 0-2.52.6-3.36 1.86-.84 1.14-1.23 2.49-1.23 4.05v8.19h-1.8v-15.51h1.8v2.97c.42-.96.99-1.74 1.71-2.31.84-.72 1.86-1.08 3-1.08zm12.54.42h1.98l4.89 13.23 4.86-13.23h2.01l-5.94 15.51h-1.86zm22.05-.42c2.46 0 4.29.81 5.52 2.49 1.08 1.47 1.68 3.54 1.77 6.21h-12.6c.09 1.89.6 3.39 1.53 4.47.96 1.08 2.22 1.62 3.84 1.62 1.41 0 2.55-.39 3.42-1.11.72-.63 1.26-1.53 1.65-2.73h1.83c-.36 1.5-1.05 2.73-2.07 3.69-1.26 1.14-2.85 1.71-4.83 1.71-2.19 0-3.93-.75-5.22-2.22-1.35-1.5-2.01-3.51-2.01-5.97 0-2.28.63-4.17 1.92-5.73 1.32-1.62 3.06-2.43 5.25-2.43zm.03 1.56c-1.53 0-2.76.51-3.69 1.59-.93 1.05-1.47 2.4-1.62 4.08h10.68c-.3-3.78-2.1-5.67-5.37-5.67zm10.14-7.47h1.83v9.15c.54-1.05 1.26-1.86 2.16-2.43.87-.54 1.86-.81 2.94-.81 1.77 0 3.15.51 4.14 1.56s1.5 2.55 1.5 4.47v9.9h-1.8v-9.66c0-1.5-.39-2.67-1.14-3.51-.78-.81-1.83-1.2-3.21-1.2-1.29 0-2.37.51-3.27 1.56-.9 1.02-1.32 2.31-1.32 3.84v8.97h-1.83zm18.15.75c.42 0 .78.15 1.08.45.3.24.45.6.45 1.05 0 .42-.18.78-.48 1.08-.3.27-.63.42-1.05.42-.45 0-.81-.15-1.08-.42-.3-.3-.45-.66-.45-1.08 0-.45.15-.81.45-1.05.27-.3.63-.45 1.08-.45zm-.9 5.58h1.8v15.51h-1.8zm13.02-.42c1.86 0 3.36.45 4.53 1.35s1.89 2.28 2.13 4.14h-1.8c-.21-1.32-.72-2.28-1.56-2.94s-1.95-.99-3.3-.99c-1.62 0-2.94.63-3.9 1.89-.96 1.2-1.41 2.82-1.41 4.83 0 1.98.45 3.57 1.35 4.74s2.22 1.77 3.93 1.77c2.88 0 4.53-1.47 4.98-4.41h1.77c-.3 1.95-1.05 3.45-2.22 4.47-1.14.99-2.67 1.5-4.53 1.5-2.28 0-4.08-.78-5.34-2.34-1.2-1.44-1.77-3.36-1.77-5.73 0-2.34.6-4.29 1.83-5.82 1.29-1.65 3.06-2.46 5.31-2.46zm10.17-5.91h1.8v21.84h-1.8zm12.42 5.91c2.46 0 4.29.81 5.52 2.49 1.08 1.47 1.68 3.54 1.77 6.21h-12.6c.09 1.89.6 3.39 1.53 4.47.96 1.08 2.22 1.62 3.84 1.62 1.41 0 2.55-.39 3.42-1.11.72-.63 1.26-1.53 1.65-2.73h1.83c-.36 1.5-1.05 2.73-2.07 3.69-1.26 1.14-2.85 1.71-4.83 1.71-2.19 0-3.93-.75-5.22-2.22-1.35-1.5-2.01-3.51-2.01-5.97 0-2.28.63-4.17 1.92-5.73 1.32-1.62 3.06-2.43 5.25-2.43zm.03 1.56c-1.53 0-2.76.51-3.69 1.59-.93 1.05-1.47 2.4-1.62 4.08h10.68c-.3-3.78-2.1-5.67-5.37-5.67z"/><path d="m8.46 86.0395701c2.16 0 3.78.57 4.83 1.77.9.99 1.38 2.37 1.38 4.17v9.9899999h-1.71v-2.9699999c-.63.9-1.47 1.6799999-2.49 2.2799999-1.26.72-2.61 1.11-4.08 1.11-1.5 0-2.73-.39-3.63-1.14-.99-.78-1.47-1.8299999-1.47-3.0899999 0-1.8.72-3.12 2.19-3.96 1.26-.81 3.09-1.23 5.43-1.23l3.96-.06v-.93c0-2.94-1.5-4.41-4.5-4.41-1.26 0-2.28.24-3.09.78-.9.57-1.47 1.38-1.71 2.46l-1.77-.12c.3-1.56 1.08-2.76 2.34-3.54 1.11-.75 2.55-1.11 4.32-1.11zm4.41 8.28-3.87.06c-3.93.03-5.88 1.29-5.88 3.75 0 .84.33 1.5.99 2.0099999.66.51 1.56.78 2.64.78 1.56 0 3-.54 4.26-1.6199999 1.23-1.02 1.86-2.16 1.86-3.36zm5.58-7.86h1.8v9.48c0 1.62.33 2.82 1.02 3.63.72.8399999 1.83 1.2599999 3.33 1.2599999 1.2 0 2.25-.48 3.15-1.3799999.9-.9 1.41-2.1 1.53-3.57v-9.42h1.8v15.5099999h-1.8v-2.6099999c-1.2 2.0099999-2.94 3.0299999-5.16 3.0299999-3.78 0-5.67-2.13-5.67-6.3599999zm20.16-5.01v5.01h4.05v1.56h-4.05v10.5c0 .66.12 1.17.36 1.47.24.2699999.69.4199999 1.35.4199999h1.95v1.56h-2.19c-1.2 0-2.07-.33-2.58-.93-.48-.54-.69-1.3799999-.69-2.5199999v-10.5h-3.3v-1.56h3.3v-4.26zm13.56 4.59c2.28 0 4.11.81 5.49 2.46 1.26 1.53 1.89 3.45 1.89 5.73s-.63 4.17-1.89 5.7c-1.38 1.6199999-3.21 2.4599999-5.49 2.4599999s-4.11-.84-5.49-2.4599999c-1.26-1.53-1.89-3.42-1.89-5.7s.63-4.2 1.92-5.73c1.35-1.65 3.18-2.46 5.46-2.46zm0 1.56c-1.77 0-3.15.66-4.17 2.04-.93 1.2-1.38 2.73-1.38 4.59 0 1.83.45 3.36 1.38 4.56 1.02 1.3499999 2.4 2.0399999 4.17 2.0399999s3.18-.69 4.2-2.0399999c.9-1.23 1.38-2.76 1.38-4.56 0-1.86-.48-3.39-1.38-4.59-1.02-1.38-2.43-2.04-4.2-2.04zm16.86-1.56c2.46 0 4.08 1.05 4.86 3.18.54-1.05 1.23-1.83 2.07-2.37.78-.54 1.74-.81 2.82-.81 1.62 0 2.94.51 3.9 1.53.93 1.02 1.41 2.43 1.41 4.26v10.1399999h-1.8v-9.8999999c0-1.47-.3-2.58-.9-3.3-.66-.78-1.71-1.17-3.09-1.17-1.14 0-2.07.42-2.82 1.29-.78.84-1.14 1.89-1.14 3.21v9.8699999h-1.83v-9.8999999c0-3-1.29-4.47-3.87-4.47-1.17 0-2.13.45-2.91 1.41-.81.93-1.2 2.07-1.2 3.42v9.5399999h-1.8v-15.5099999h1.8v2.34c1.11-1.86 2.61-2.76 4.5-2.76zm25.41 0c2.16 0 3.78.57 4.83 1.77.9.99 1.38 2.37 1.38 4.17v9.9899999h-1.71v-2.9699999c-.63.9-1.47 1.6799999-2.49 2.2799999-1.26.72-2.61 1.11-4.08 1.11-1.5 0-2.73-.39-3.63-1.14-.99-.78-1.47-1.8299999-1.47-3.0899999 0-1.8.72-3.12 2.19-3.96 1.26-.81 3.09-1.23 5.43-1.23l3.96-.06v-.93c0-2.94-1.5-4.41-4.5-4.41-1.26 0-2.28.24-3.09.78-.9.57-1.47 1.38-1.71 2.46l-1.77-.12c.3-1.56 1.08-2.76 2.34-3.54 1.11-.75 2.55-1.11 4.32-1.11zm4.41 8.28-3.87.06c-3.93.03-5.88 1.29-5.88 3.75 0 .84.33 1.5.99 2.0099999.66.51 1.56.78 2.64.78 1.56 0 3-.54 4.26-1.6199999 1.23-1.02 1.86-2.16 1.86-3.36zm9.33-12.87v5.01h4.05v1.56h-4.05v10.5c0 .66.12 1.17.36 1.47.24.2699999.69.4199999 1.35.4199999h1.95v1.56h-2.19c-1.2 0-2.07-.33-2.58-.93-.48-.54-.69-1.3799999-.69-2.5199999v-10.5h-3.3v-1.56h3.3v-4.26zm8.58-.57c.42 0 .78.15 1.08.45.3.24.45.6.45 1.05 0 .42-.18.78-.48 1.08-.3.27-.63.42-1.05.42-.45 0-.81-.15-1.08-.42-.3-.3-.45-.66-.45-1.08 0-.45.15-.81.45-1.05.27-.3.63-.45 1.08-.45zm-.9 5.58h1.8v15.5099999h-1.8zm13.02-.42c1.86 0 3.36.45 4.53 1.35s1.89 2.28 2.13 4.14h-1.8c-.21-1.32-.72-2.28-1.56-2.94s-1.95-.99-3.3-.99c-1.62 0-2.94.63-3.9 1.89-.96 1.2-1.41 2.82-1.41 4.83 0 1.98.45 3.57 1.35 4.74.9 1.1699999 2.22 1.7699999 3.93 1.7699999 2.88 0 4.53-1.4699999 4.98-4.4099999h1.77c-.3 1.95-1.05 3.45-2.22 4.4699999-1.14.99-2.67 1.5-4.53 1.5-2.28 0-4.08-.78-5.34-2.34-1.2-1.4399999-1.77-3.3599999-1.77-5.7299999 0-2.34.6-4.29 1.83-5.82 1.29-1.65 3.06-2.46 5.31-2.46zm16.17 0c2.16 0 3.78.57 4.83 1.77.9.99 1.38 2.37 1.38 4.17v9.9899999h-1.71v-2.9699999c-.63.9-1.47 1.6799999-2.49 2.2799999-1.26.72-2.61 1.11-4.08 1.11-1.5 0-2.73-.39-3.63-1.14-.99-.78-1.47-1.8299999-1.47-3.0899999 0-1.8.72-3.12 2.19-3.96 1.26-.81 3.09-1.23 5.43-1.23l3.96-.06v-.93c0-2.94-1.5-4.41-4.5-4.41-1.26 0-2.28.24-3.09.78-.9.57-1.47 1.38-1.71 2.46l-1.77-.12c.3-1.56 1.08-2.76 2.34-3.54 1.11-.75 2.55-1.11 4.32-1.11zm4.41 8.28-3.87.06c-3.93.03-5.88 1.29-5.88 3.75 0 .84.33 1.5.99 2.0099999.66.51 1.56.78 2.64.78 1.56 0 3-.54 4.26-1.6199999 1.23-1.02 1.86-2.16 1.86-3.36zm6.15-14.19h1.8v21.8399999h-1.8zm6.72 0h1.8v21.8399999h-1.8zm4.41 6.33h1.98l5.07 12.93 5.01-12.93h1.98l-8.55 21.4499999h-1.95l2.61-6.33zm18.06 12.51c.42 0 .78.15 1.08.45s.45.6599999.45 1.0799999-.15.81-.45 1.11c-.3.27-.66.42-1.08.42-.45 0-.81-.15-1.08-.42-.3-.3-.45-.69-.45-1.11s.15-.7799999.45-1.0799999c.27-.3.63-.45 1.08-.45z"/></g></g></g></g></svg>