<svg height="26" viewBox="0 0 303 26" width="303" xmlns="http://www.w3.org/2000/svg"><path d="m1.44 4.36h2.256v24h-2.256zm28.8 3.168c2.016 0 3.696.528 4.992 1.584 1.248 1.008 1.992 2.4 2.256 4.128h-2.736c-.288-1.128-.816-1.944-1.608-2.472-.768-.528-1.752-.768-2.952-.768-1.8 0-3.144.6-4.056 1.848-.84 1.104-1.248 2.64-1.248 4.608 0 2.016.408 3.576 1.224 4.656.888 1.152 2.28 1.752 4.152 1.752 1.224 0 2.232-.312 3-.888.816-.648 1.392-1.632 1.728-2.928h2.736c-.384 2.016-1.272 3.576-2.688 4.704-1.32 1.056-2.904 1.584-4.752 1.584-2.856 0-4.992-.912-6.384-2.688-1.224-1.536-1.824-3.6-1.824-6.192 0-2.544.624-4.632 1.896-6.216 1.44-1.824 3.528-2.712 6.264-2.712zm10.128 0h2.736v17.472h-2.736zm11.616 4.728c1.872 0 3.384.6 4.536 1.848 1.128 1.224 1.704 2.784 1.704 4.704 0 1.896-.576 3.456-1.68 4.656-1.152 1.248-2.688 1.872-4.56 1.872-1.896 0-3.408-.624-4.56-1.872-1.128-1.2-1.68-2.76-1.68-4.656 0-1.92.552-3.48 1.704-4.704 1.128-1.248 2.64-1.848 4.536-1.848zm0 2.232c-1.152 0-2.016.432-2.64 1.344-.528.768-.792 1.776-.792 2.976s.264 2.184.792 2.952c.624.888 1.488 1.344 2.64 1.344 1.128 0 2.016-.456 2.64-1.344.528-.792.816-1.776.816-2.952 0-1.2-.288-2.208-.816-2.976-.624-.912-1.512-1.344-2.64-1.344zm13.32-2.232c3.264 0 5.064 1.296 5.352 3.936h-2.664c-.192-.624-.48-1.08-.864-1.32-.408-.264-1.032-.384-1.872-.384-.72 0-1.272.096-1.632.312-.432.216-.624.552-.624 1.032 0 .384.312.744.984 1.032.408.168 1.224.408 2.472.72 1.392.336 2.448.72 3.12 1.176.984.624 1.488 1.512 1.488 2.616 0 2.64-1.872 3.96-5.592 3.96-3.456 0-5.304-1.464-5.568-4.368h2.664c.144.792.432 1.344.84 1.68.408.288 1.056.456 1.968.456 1.92 0 2.88-.528 2.88-1.536 0-.576-.36-1.032-1.08-1.368-.384-.192-1.2-.408-2.448-.696-1.464-.336-2.496-.696-3.096-1.08-.96-.6-1.44-1.44-1.44-2.52 0-1.152.456-2.04 1.416-2.664.936-.672 2.16-.984 3.696-.984zm13.2 0c2.04 0 3.6.672 4.68 2.064.984 1.248 1.488 3 1.488 5.232h-9.288c.096 1.152.408 2.04.936 2.64s1.296.912 2.28.912c.84 0 1.512-.192 2.04-.576.408-.312.768-.816 1.104-1.512h2.736c-.288 1.152-.864 2.136-1.728 2.904-1.104.936-2.472 1.416-4.128 1.416-1.848 0-3.312-.576-4.392-1.704-1.152-1.176-1.728-2.784-1.728-4.848 0-1.848.528-3.384 1.632-4.632 1.056-1.272 2.52-1.896 4.368-1.896zm.072 2.232c-.912 0-1.608.24-2.136.768-.504.504-.84 1.248-1.008 2.232h6.384c-.24-2.016-1.32-3-3.24-3zm17.088-6.96h2.736v17.472h-2.544v-1.32c-.864 1.104-2.112 1.656-3.744 1.656-1.848 0-3.288-.648-4.32-1.944-.96-1.2-1.44-2.76-1.44-4.656 0-1.824.456-3.336 1.416-4.536 1.008-1.296 2.424-1.944 4.2-1.944 1.44 0 2.664.672 3.696 2.04zm-3.048 6.936c-1.248 0-2.136.408-2.712 1.224-.504.696-.744 1.704-.744 3.048s.216 2.376.696 3.096c.552.864 1.44 1.296 2.664 1.296 1.056 0 1.896-.432 2.472-1.272.504-.768.768-1.776.768-2.976v-.192c0-1.32-.336-2.376-.96-3.144-.576-.72-1.32-1.08-2.184-1.08zm16.896-6.6h2.784v14.736h9.264v2.4h-12.048zm19.728 4.392c1.872 0 3.384.6 4.536 1.848 1.128 1.224 1.704 2.784 1.704 4.704 0 1.896-.576 3.456-1.68 4.656-1.152 1.248-2.688 1.872-4.56 1.872-1.896 0-3.408-.624-4.56-1.872-1.128-1.2-1.68-2.76-1.68-4.656 0-1.92.552-3.48 1.704-4.704 1.128-1.248 2.64-1.848 4.536-1.848zm0 2.232c-1.152 0-2.016.432-2.64 1.344-.528.768-.792 1.776-.792 2.976s.264 2.184.792 2.952c.624.888 1.488 1.344 2.64 1.344 1.128 0 2.016-.456 2.64-1.344.528-.792.816-1.776.816-2.952 0-1.2-.288-2.208-.816-2.976-.624-.912-1.512-1.344-2.64-1.344zm14.4-2.232c1.872 0 3.384.6 4.536 1.848 1.128 1.224 1.704 2.784 1.704 4.704 0 1.896-.576 3.456-1.68 4.656-1.152 1.248-2.688 1.872-4.56 1.872-1.896 0-3.408-.624-4.56-1.872-1.128-1.2-1.68-2.76-1.68-4.656 0-1.92.552-3.48 1.704-4.704 1.128-1.248 2.64-1.848 4.536-1.848zm0 2.232c-1.152 0-2.016.432-2.64 1.344-.528.768-.792 1.776-.792 2.976s.264 2.184.792 2.952c.624.888 1.488 1.344 2.64 1.344 1.128 0 2.016-.456 2.64-1.344.528-.792.816-1.776.816-2.952 0-1.2-.288-2.208-.816-2.976-.624-.912-1.512-1.344-2.64-1.344zm14.928-2.232c1.824 0 3.264.648 4.32 1.944.96 1.2 1.44 2.736 1.44 4.656 0 1.824-.48 3.336-1.416 4.536-1.008 1.296-2.424 1.944-4.2 1.944-1.44 0-2.688-.696-3.696-2.04v6.456h-2.736v-17.16h2.544v1.32c.864-1.104 2.112-1.656 3.744-1.656zm-.408 2.208c-1.08 0-1.896.408-2.472 1.272-.528.744-.768 1.728-.768 2.976v.192c0 1.296.312 2.352.96 3.144.576.72 1.296 1.08 2.184 1.08 1.2 0 2.112-.408 2.688-1.176.504-.72.768-1.752.768-3.096s-.24-2.376-.696-3.096c-.576-.864-1.464-1.296-2.664-1.296zm21.672-6.6h3.192l6.552 17.136h-3l-1.56-4.296h-7.176l-1.56 4.296h-3zm-1.152 10.536h5.496l-2.688-7.512h-.096zm12.336-5.808h2.736v7.56c0 1.008.192 1.728.624 2.208.432.456 1.104.696 2.064.696.6 0 1.176-.264 1.728-.768.552-.528.96-1.224 1.2-2.112v-7.584h2.736v12.408h-2.736v-1.608c-1.056 1.296-2.352 1.944-3.888 1.944-2.976 0-4.464-1.68-4.464-5.016zm17.856-4.008v4.008h2.76v2.256h-2.76v7.008c0 .288.048.504.192.672.144.144.336.216.624.216h1.632v2.256h-2.088c-1.08 0-1.872-.288-2.376-.864-.48-.528-.72-1.272-.72-2.28v-7.008h-2.232v-2.256h2.232v-2.88zm10.56 3.672c1.872 0 3.384.6 4.536 1.848 1.128 1.224 1.704 2.784 1.704 4.704 0 1.896-.576 3.456-1.68 4.656-1.152 1.248-2.688 1.872-4.56 1.872-1.896 0-3.408-.624-4.56-1.872-1.128-1.2-1.68-2.76-1.68-4.656 0-1.92.552-3.48 1.704-4.704 1.128-1.248 2.64-1.848 4.536-1.848zm0 2.232c-1.152 0-2.016.432-2.64 1.344-.528.768-.792 1.776-.792 2.976s.264 2.184.792 2.952c.624.888 1.488 1.344 2.64 1.344 1.128 0 2.016-.456 2.64-1.344.528-.792.816-1.776.816-2.952 0-1.2-.288-2.208-.816-2.976-.624-.912-1.512-1.344-2.64-1.344zm14.736-2.232c1.824 0 3.12.672 3.912 2.016.576-.768 1.176-1.296 1.8-1.584.552-.288 1.248-.432 2.088-.432 1.272 0 2.328.408 3.192 1.272.816.864 1.248 1.968 1.248 3.336v8.136h-2.736v-7.656c0-.984-.216-1.704-.624-2.136-.432-.456-1.104-.672-2.064-.672-.672 0-1.224.24-1.68.768-.48.504-.696 1.2-.696 2.112v7.584h-2.736v-7.632c0-1.896-.816-2.832-2.448-2.832-.792 0-1.416.288-1.896.912-.48.576-.72 1.296-.72 2.112v7.44h-2.736v-12.408h2.736v1.272c1.032-1.08 2.16-1.608 3.36-1.608zm20.76 0c1.824 0 3.192.456 4.056 1.368.768.792 1.152 1.944 1.152 3.456v7.92h-2.544v-1.632c-.48.624-1.08 1.08-1.776 1.416-.792.36-1.728.552-2.808.552-1.296 0-2.304-.336-3.048-.984-.768-.672-1.152-1.512-1.152-2.544 0-1.392.528-2.472 1.632-3.216 1.008-.72 2.424-1.104 4.248-1.152l2.712-.072v-.48c0-1.632-.888-2.424-2.664-2.424-.768 0-1.368.12-1.824.408-.528.312-.888.792-1.032 1.44l-2.712-.216c.264-1.368.936-2.376 2.016-3 .912-.576 2.16-.84 3.744-.84zm2.472 7.08-2.52.072c-2.184.048-3.264.816-3.264 2.304 0 .432.168.792.552 1.08s.864.456 1.464.456c1.056 0 1.944-.312 2.664-.912.72-.624 1.104-1.416 1.104-2.376zm9.504-10.752v4.008h2.76v2.256h-2.76v7.008c0 .288.048.504.192.672.144.144.336.216.624.216h1.632v2.256h-2.088c-1.08 0-1.872-.288-2.376-.864-.48-.528-.72-1.272-.72-2.28v-7.008h-2.232v-2.256h2.232v-2.88zm6.648-1.056c.528 0 .984.168 1.344.504.336.336.528.768.528 1.296s-.192.984-.552 1.32-.792.504-1.32.504-.96-.168-1.32-.504c-.36-.36-.528-.792-.528-1.32s.168-.96.528-1.296.792-.504 1.32-.504zm-1.368 5.064h2.736v12.408h-2.736zm11.88-.336c1.872 0 3.384.6 4.536 1.848 1.128 1.224 1.704 2.784 1.704 4.704 0 1.896-.576 3.456-1.68 4.656-1.152 1.248-2.688 1.872-4.56 1.872-1.896 0-3.408-.624-4.56-1.872-1.128-1.2-1.68-2.76-1.68-4.656 0-1.92.552-3.48 1.704-4.704 1.128-1.248 2.64-1.848 4.536-1.848zm0 2.232c-1.152 0-2.016.432-2.64 1.344-.528.768-.792 1.776-.792 2.976s.264 2.184.792 2.952c.624.888 1.488 1.344 2.64 1.344 1.128 0 2.016-.456 2.64-1.344.528-.792.816-1.776.816-2.952 0-1.2-.288-2.208-.816-2.976-.624-.912-1.512-1.344-2.64-1.344zm15.048-2.232c3.096 0 4.656 1.68 4.656 5.088v7.656h-2.736v-7.416c0-2.04-.936-3.048-2.808-3.048-.672 0-1.272.24-1.776.72-.576.528-.912 1.296-1.008 2.28v7.464h-2.736v-12.408h2.736v1.44c.48-.576 1.032-1.032 1.632-1.32.624-.312 1.296-.456 2.04-.456z" fill="#fff" transform="translate(-1 -4)"/></svg>